<svg width="160" height="48" viewBox="0 0 160 48" fill="none" xmlns="http://www.w3.org/2000/svg">
<g clip-path="url(#clip0_158_751)">
<g clip-path="url(#clip1_158_751)">
<g clip-path="url(#clip2_158_751)">
<path fill-rule="evenodd" clip-rule="evenodd" d="M37.0276 2.44826L42.3668 7.78744L43.9598 6.19443L38.2881 0.522718C37.5889 -0.176427 36.4546 -0.173911 35.7586 0.52833L30.9391 5.39081L26.1217 0.530418C25.4234 -0.174022 24.2848 -0.174021 23.5865 0.530418L18.7691 5.39081L13.9516 0.530418C13.2535 -0.174021 12.1147 -0.174023 11.4166 0.530417L0.540568 11.5033C0.209296 11.8376 0.0234375 12.2891 0.0234375 12.7597V33.1056H2.27629V12.9525L12.6842 2.45183L17.5016 7.31222C18.1997 8.01667 19.3384 8.01667 20.0366 7.31222L24.8541 2.45183L29.6715 7.31222C30.3698 8.01667 31.5084 8.01667 32.2066 7.31222L37.0276 2.44826Z" fill="#E86868"/>
<path d="M102.379 32.1993L98.1996 21.7369L96.8064 21.3272L96.8611 20.3438H101.887L101.942 21.3272L100.522 21.7369L103.69 30.0413L103.007 30.0685L106.258 21.7369L104.838 21.3272L104.892 20.3438H109.126L109.181 21.3272L107.897 21.7369L103.226 32.1993H102.379ZM94.4299 32.1993L90.0046 21.7369L88.7207 21.3272L88.7753 20.3438H93.8289L93.8836 21.3272L92.4904 21.7369L95.8777 30.0413L95.0582 30.0685L98.664 21.4911L99.4016 23.1847L95.2767 32.1993H94.4299Z" fill="white"/>
<path d="M80.6904 32.3094C79.5067 32.3094 78.4686 32.0545 77.5763 31.5446C76.7021 31.0347 76.0192 30.3245 75.5275 29.414C75.0358 28.4851 74.79 27.4289 74.79 26.2452C74.79 25.0068 75.0632 23.9323 75.6095 23.0218C76.1558 22.1112 76.8843 21.401 77.7948 20.8911C78.7054 20.3811 79.707 20.1262 80.7996 20.1262C81.9288 20.1262 82.9122 20.3811 83.7499 20.8911C84.6059 21.3828 85.2614 22.084 85.7167 22.9944C86.1902 23.8868 86.4269 24.9339 86.4269 26.1359C86.4269 27.2832 86.172 28.3212 85.6621 29.2501C85.1522 30.1788 84.4601 30.9254 83.586 31.49C82.7301 32.0363 81.7649 32.3094 80.6904 32.3094ZM80.9635 31.0257C81.5827 31.0257 82.12 30.8435 82.5752 30.4792C83.0305 30.0968 83.3857 29.5779 83.6406 28.9222C83.8956 28.2484 84.023 27.4835 84.023 26.6276C84.023 25.0614 83.6952 23.7958 83.0397 22.8305C82.4022 21.8472 81.5555 21.3555 80.4992 21.3555C79.5157 21.3555 78.7236 21.7652 78.1227 22.5848C77.5399 23.4042 77.2485 24.4878 77.2485 25.8354C77.2485 26.8553 77.4033 27.7566 77.7129 28.5397C78.0407 29.3228 78.4869 29.9329 79.0514 30.37C79.616 30.8071 80.2533 31.0257 80.9635 31.0257Z" fill="white"/>
<path d="M64.1101 32.089L64.0281 31.1057L65.7218 30.6959C65.74 30.6048 65.7582 30.4409 65.7765 30.2042C65.7946 29.9674 65.8037 29.6487 65.8037 29.2481C65.822 28.8474 65.8311 28.3557 65.8311 27.773L65.8583 25.6422C65.8583 25.0413 65.8311 24.4495 65.7765 23.8667C65.74 23.284 65.6944 22.8195 65.6398 22.4735L63.8916 22.0911V21.1896L67.552 20.179L67.9345 20.5614L67.8252 22.8559L67.9071 22.8833C68.4534 21.827 69.0089 21.1168 69.5734 20.7525C70.138 20.3701 70.6662 20.179 71.1579 20.179C71.5767 20.179 71.9227 20.2882 72.1959 20.5067C72.4873 20.707 72.6329 21.0167 72.6329 21.4355C72.6329 21.8725 72.4781 22.2095 72.1686 22.4462C71.8772 22.6648 71.5039 22.774 71.0486 22.774C70.7208 22.774 70.402 22.7011 70.0925 22.5555C69.8011 22.4097 69.5188 22.2095 69.2456 21.9545L69.7373 22.1184C69.3914 22.337 69.0635 22.6465 68.7539 23.0472C68.4444 23.4296 68.1621 23.9122 67.9071 24.495L67.9345 27.0354C67.9526 27.4907 67.9708 27.9642 67.9891 28.456C68.0072 28.9476 68.0255 29.3938 68.0437 29.7944C68.062 30.1769 68.0801 30.4773 68.0984 30.6959L70.4749 31.051L70.4203 32.089H64.1101Z" fill="white"/>
<path d="M53.0476 32.089L52.9657 31.1057L54.6593 30.6959C54.6776 30.6048 54.6957 30.4409 54.714 30.2042C54.7322 29.9674 54.7413 29.6487 54.7413 29.2481C54.7595 28.8474 54.7686 28.3557 54.7686 27.773L54.796 25.6422C54.796 25.0413 54.7686 24.4495 54.714 23.8667C54.6776 23.284 54.6321 22.8195 54.5774 22.4735L52.8291 22.0911V21.1896L56.4895 20.179L56.872 20.5614L56.7627 22.8559L56.8447 22.8833C57.391 21.827 57.9465 21.1168 58.511 20.7525C59.0756 20.3701 59.6037 20.179 60.0954 20.179C60.5143 20.179 60.8602 20.2882 61.1335 20.5067C61.4248 20.707 61.5705 21.0167 61.5705 21.4355C61.5705 21.8725 61.4156 22.2095 61.1061 22.4462C60.8147 22.6648 60.4414 22.774 59.9861 22.774C59.6583 22.774 59.3396 22.7011 59.03 22.5555C58.7387 22.4097 58.4564 22.2095 58.1832 21.9545L58.6749 22.1184C58.3289 22.337 58.0011 22.6465 57.6914 23.0472C57.3819 23.4296 57.0996 23.9122 56.8447 24.495L56.872 27.0354C56.8902 27.4907 56.9085 27.9642 56.9266 28.456C56.9448 28.9476 56.9631 29.3938 56.9812 29.7944C56.9995 30.1769 57.0177 30.4773 57.0359 30.6959L59.4125 31.051L59.3578 32.089H53.0476Z" fill="white"/>
<path d="M43.4339 32.3094C42.7054 32.3094 42.0589 32.1638 41.4944 31.8724C40.9298 31.5811 40.4836 31.2077 40.1558 30.7524C39.8463 30.2972 39.6914 29.8236 39.6914 29.332C39.6914 28.7128 39.8918 28.2028 40.2924 27.8023C40.693 27.4016 41.3486 27.0556 42.2592 26.7642L46.4113 25.371V23.9779C46.4113 23.5226 46.2748 23.1128 46.0017 22.7487C45.7285 22.3662 45.3642 22.0657 44.9089 21.8472C44.4537 21.6287 43.9438 21.5194 43.3792 21.5194C42.9239 21.5194 42.6144 21.6195 42.4505 21.8198C42.2866 22.0019 42.1863 22.3752 42.1499 22.9398L42.0953 24.0872C41.4397 24.2328 40.8843 24.2146 40.429 24.0326C39.9737 23.8322 39.746 23.5135 39.746 23.0764C39.746 22.7668 39.8735 22.4573 40.1285 22.1476C40.4017 21.8381 40.7568 21.5466 41.1938 21.2735C41.6309 20.9821 42.1044 20.7363 42.6144 20.5359C43.1242 20.3356 43.625 20.1991 44.1168 20.1262C45.4644 20.1262 46.5389 20.4813 47.3402 21.1916C48.1597 21.9018 48.5785 22.8305 48.5967 23.9779L48.5421 28.5671C48.5421 28.9132 48.5512 29.2501 48.5694 29.5779C48.6059 29.9056 48.6514 30.1514 48.706 30.3153L50.4542 30.6431V31.49L49.1158 31.9817C48.8608 32.0728 48.624 32.1456 48.4055 32.2002C48.1869 32.2731 48.0049 32.3094 47.8591 32.3094C47.2946 32.3094 46.9304 31.9908 46.7665 31.3534L46.466 30.2881H46.8758C46.2748 30.9619 45.692 31.4718 45.1274 31.8178C44.5811 32.1456 44.0166 32.3094 43.4339 32.3094ZM44.1714 30.6978C44.5902 30.6978 44.9818 30.6067 45.346 30.4246C45.7102 30.2243 46.0654 29.9238 46.4113 29.5232V26.6549L43.3518 27.4745C42.9148 27.5837 42.5961 27.7566 42.3958 27.9934C42.2137 28.2302 42.1227 28.5307 42.1227 28.8949C42.1227 29.3502 42.323 29.769 42.7236 30.1514C43.1424 30.5157 43.625 30.6978 44.1714 30.6978Z" fill="white"/>
<path d="M22.7828 32.09L22.7282 31.1065L24.4218 30.6968C24.4583 30.4964 24.4856 30.196 24.5038 29.7953C24.5219 29.3764 24.5311 28.821 24.5311 28.129C24.5493 27.4369 24.5584 26.5902 24.5584 25.5886V22.1739C24.5584 21.5547 24.5493 20.89 24.5311 20.1798C24.5311 19.4696 24.5219 18.7866 24.5038 18.1311C24.5038 17.4572 24.4947 16.8745 24.4764 16.3827C24.4764 15.891 24.4673 15.5633 24.4492 15.3994L22.4277 15.1262L22.373 14.2521L26.2248 13.1321L26.7437 13.5145C26.7256 14.0791 26.7073 14.6436 26.6891 15.2082C26.6709 15.7727 26.6527 16.3827 26.6344 17.0384C26.6344 17.6758 26.6254 18.4042 26.6072 19.2237C26.6072 20.0433 26.6072 20.9903 26.6072 22.0647L26.6891 22.092C27.3265 21.4 27.9457 20.8991 28.5467 20.5896C29.1659 20.2799 29.8397 20.1252 30.568 20.1252C31.2419 20.1252 31.8702 20.2982 32.453 20.6442C33.054 20.9903 33.5365 21.5183 33.9007 22.2286C34.2832 22.9206 34.4744 23.813 34.4744 24.9056V27.8559C34.4744 28.5114 34.4926 29.1033 34.529 29.6314C34.5654 30.1414 34.6019 30.4964 34.6383 30.6968L36.332 31.1065L36.2773 32.09H30.7867L30.7047 31.1065L32.2891 30.6968C32.3072 30.5511 32.3255 30.369 32.3437 30.1505C32.3619 29.9319 32.371 29.6587 32.371 29.3309C32.3893 28.985 32.3984 28.5569 32.3984 28.047V25.0969C32.3984 24.3138 32.2617 23.6855 31.9886 23.2119C31.7336 22.7202 31.3968 22.3652 30.9778 22.1467C30.559 21.9099 30.1129 21.7915 29.6393 21.7915C29.0566 21.7915 28.5012 21.9463 27.973 22.2559C27.4449 22.5472 26.9987 22.957 26.6344 23.4852V27.5827C26.6344 28.4204 26.6436 29.1124 26.6618 29.6587C26.6982 30.2051 26.7347 30.5511 26.7711 30.6968L28.4374 31.1065L28.3828 32.09H22.7828Z" fill="white"/>
<path d="M13.8792 32.335C13.0961 32.335 12.2766 32.2347 11.4206 32.0345C10.5647 31.8342 9.87271 31.5792 9.34459 31.2696L9.20801 27.7457L10.3826 27.6364L11.1475 30.0676C11.5845 30.359 12.0672 30.5867 12.5953 30.7506C13.1235 30.8962 13.688 30.9691 14.289 30.9691C15.1995 30.9691 15.9188 30.7506 16.447 30.3135C16.9933 29.8765 17.2665 29.2845 17.2665 28.5379C17.2665 27.9005 17.0753 27.3724 16.6928 26.9535C16.3103 26.5164 15.8095 26.1431 15.1903 25.8336C14.5894 25.5239 13.9429 25.2144 13.2509 24.9047C12.5771 24.5952 11.9306 24.2492 11.3114 23.8667C10.7104 23.4661 10.2187 22.9835 9.8363 22.4189C9.45386 21.8362 9.26264 21.1169 9.26264 20.2609C9.26264 19.3686 9.50849 18.5946 10.0002 17.939C10.4919 17.2652 11.1748 16.737 12.049 16.3546C12.9413 15.9722 13.9521 15.781 15.0811 15.781C15.5546 15.781 16.0099 15.8083 16.447 15.8629C16.9023 15.8994 17.3211 15.963 17.7035 16.0542C18.0859 16.1452 18.432 16.2636 18.7415 16.4092L18.9602 19.8239L17.7855 19.9331L17.0206 17.6385C16.4561 17.2743 15.7094 17.0922 14.7807 17.0922C13.8519 17.0922 13.1052 17.3198 12.5406 17.7751C11.9943 18.2122 11.7212 18.804 11.7212 19.5507C11.7212 20.2063 11.9123 20.7526 12.2948 21.1897C12.6954 21.6267 13.1962 22.0091 13.7973 22.337C14.4164 22.6648 15.0629 22.9835 15.7368 23.293C16.4287 23.6027 17.0753 23.9487 17.6762 24.3312C18.2954 24.7136 18.7963 25.187 19.1787 25.7516C19.5792 26.2979 19.7796 26.9809 19.7796 27.8003C19.7796 28.6744 19.5246 29.4575 19.0148 30.1496C18.523 30.8234 17.831 31.3606 16.9387 31.7613C16.0463 32.1437 15.0264 32.335 13.8792 32.335Z" fill="white"/>
<path d="M154.554 32.308C153.498 32.308 152.543 32.0712 151.687 31.5978C150.848 31.1243 150.175 30.4504 149.665 29.5763C149.173 28.684 148.927 27.6368 148.927 26.4349C148.927 25.1419 149.191 24.0219 149.72 23.0749C150.248 22.1279 150.94 21.3995 151.796 20.8896C152.652 20.3615 153.571 20.1065 154.554 20.1247C155.975 20.1429 157.085 20.6165 157.887 21.5452C158.688 22.474 159.089 23.7852 159.089 25.4788V25.9705H150.703V24.7686H157.286L156.985 25.1237V24.5501C156.985 23.4938 156.749 22.6834 156.276 22.1189C155.802 21.5543 155.156 21.2721 154.336 21.2721C153.826 21.2721 153.334 21.4268 152.861 21.7364C152.387 22.0278 152.005 22.4831 151.714 23.1023C151.422 23.7032 151.276 24.4681 151.276 25.3968V25.7247C151.276 27.218 151.64 28.3835 152.369 29.2213C153.116 30.059 154.072 30.4778 155.237 30.4778C155.875 30.4778 156.448 30.3503 156.958 30.0954C157.468 29.8404 157.96 29.4307 158.434 28.8661L159.116 29.4944C158.606 30.4414 157.96 31.1516 157.177 31.6251C156.394 32.0804 155.52 32.308 154.554 32.308Z" fill="white"/>
<path d="M140.078 32.09L140.023 31.0792L141.799 30.6968C141.835 30.5147 141.862 30.2141 141.881 29.7953C141.899 29.3764 141.908 28.821 141.908 28.129C141.926 27.4369 141.935 26.5902 141.935 25.5886V22.1739C141.935 21.482 141.926 20.7716 141.908 20.0433C141.908 19.3148 141.899 18.6319 141.881 17.9944C141.881 17.3388 141.871 16.7834 141.853 16.3281C141.853 15.8547 141.844 15.5451 141.826 15.3994L139.804 15.1262L139.75 14.2521L143.656 13.1321L144.176 13.5145C144.157 14.2793 144.139 15.0443 144.121 15.8091C144.103 16.574 144.084 17.4208 144.066 18.3496C144.066 19.2783 144.066 20.3983 144.066 21.7096L144.038 26.1075C144.038 27.182 144.047 28.1563 144.066 29.0305C144.103 29.8864 144.139 30.4418 144.176 30.6968L145.951 31.0792L145.896 32.09H140.078Z" fill="white"/>
<path d="M130.6 32.3094C129.872 32.3094 129.225 32.1638 128.661 31.8724C128.096 31.5811 127.65 31.2077 127.322 30.7524C127.013 30.2972 126.858 29.8236 126.858 29.332C126.858 28.7128 127.058 28.2028 127.459 27.8023C127.86 27.4016 128.515 27.0556 129.426 26.7642L133.578 25.371V23.9779C133.578 23.5226 133.441 23.1128 133.169 22.7487C132.895 22.3662 132.531 22.0657 132.076 21.8472C131.62 21.6287 131.111 21.5194 130.545 21.5194C130.09 21.5194 129.78 21.6195 129.617 21.8198C129.453 22.0019 129.353 22.3752 129.316 22.9398L129.262 24.0872C128.607 24.2328 128.051 24.2146 127.595 24.0326C127.14 23.8322 126.912 23.5135 126.912 23.0764C126.912 22.7668 127.04 22.4573 127.295 22.1476C127.568 21.8381 127.923 21.5466 128.36 21.2735C128.797 20.9821 129.271 20.7363 129.78 20.5359C130.291 20.3356 130.792 20.1991 131.283 20.1262C132.631 20.1262 133.706 20.4813 134.507 21.1916C135.326 21.9018 135.745 22.8305 135.763 23.9779L135.709 28.5671C135.709 28.9132 135.718 29.2501 135.736 29.5779C135.772 29.9056 135.818 30.1514 135.872 30.3153L137.62 30.6431V31.49L136.282 31.9817C136.028 32.0728 135.791 32.1456 135.572 32.2002C135.354 32.2731 135.171 32.3094 135.026 32.3094C134.461 32.3094 134.097 31.9908 133.933 31.3534L133.633 30.2881H134.043C133.441 30.9619 132.859 31.4718 132.295 31.8178C131.748 32.1456 131.183 32.3094 130.6 32.3094ZM131.338 30.6978C131.757 30.6978 132.148 30.6067 132.513 30.4246C132.877 30.2243 133.232 29.9238 133.578 29.5232V26.6549L130.518 27.4745C130.081 27.5837 129.762 27.7566 129.562 27.9934C129.38 28.2302 129.289 28.5307 129.289 28.8949C129.289 29.3502 129.49 29.769 129.89 30.1514C130.309 30.5157 130.792 30.6978 131.338 30.6978Z" fill="white"/>
<path d="M116.806 32.1728L110.851 17.4763L109.458 17.0939L109.54 16.0559H115.195L115.249 17.0939L113.583 17.4763L118.281 29.3865H117.735L122.133 17.4763L120.221 17.0939L120.302 16.0559H125.329L125.384 17.0939L124.018 17.4763L117.954 32.1728H116.806Z" fill="white"/>
<path d="M151.584 45.7248L152.191 44.9441C152.736 45.5513 153.628 46.1213 154.793 46.1213C156.268 46.1213 156.739 45.3283 156.739 44.6963C156.739 43.7051 155.735 43.4325 154.644 43.1351C153.319 42.7882 151.844 42.4164 151.844 40.7933C151.844 39.4303 153.058 38.501 154.682 38.501C155.946 38.501 156.924 38.9223 157.618 39.6533L156.999 40.4091C156.379 39.7277 155.512 39.4179 154.607 39.4179C153.616 39.4179 152.91 39.9507 152.91 40.7313C152.91 41.5615 153.864 41.8093 154.917 42.0943C156.268 42.4536 157.804 42.8749 157.804 44.6096C157.804 45.8115 156.986 47.0382 154.756 47.0382C153.319 47.0382 152.265 46.493 151.584 45.7248Z" fill="white"/>
<path d="M142.052 46.8889V38.6243H147.466V39.5412H143.08V42.2052H147.38V43.1221H143.08V45.972H147.466V46.8889H142.052Z" fill="white"/>
<path d="M131.322 45.7248L131.929 44.9441C132.475 45.5513 133.367 46.1213 134.531 46.1213C136.006 46.1213 136.477 45.3283 136.477 44.6963C136.477 43.7051 135.473 43.4325 134.383 43.1351C133.057 42.7882 131.582 42.4164 131.582 40.7933C131.582 39.4303 132.797 38.501 134.42 38.501C135.684 38.501 136.663 38.9223 137.357 39.6533L136.737 40.4091C136.117 39.7277 135.25 39.4179 134.346 39.4179C133.354 39.4179 132.648 39.9507 132.648 40.7313C132.648 41.5615 133.602 41.8093 134.655 42.0943C136.006 42.4536 137.542 42.8749 137.542 44.6096C137.542 45.8115 136.725 47.0382 134.494 47.0382C133.057 47.0382 132.004 46.493 131.322 45.7248Z" fill="white"/>
<path d="M121.089 45.7248L121.696 44.9441C122.241 45.5513 123.133 46.1213 124.298 46.1213C125.773 46.1213 126.243 45.3283 126.243 44.6963C126.243 43.7051 125.24 43.4325 124.149 43.1351C122.824 42.7882 121.349 42.4164 121.349 40.7933C121.349 39.4303 122.563 38.501 124.187 38.501C125.45 38.501 126.429 38.9223 127.123 39.6533L126.504 40.4091C125.884 39.7277 125.017 39.4179 124.112 39.4179C123.121 39.4179 122.415 39.9507 122.415 40.7313C122.415 41.5615 123.369 41.8093 124.422 42.0943C125.773 42.4536 127.309 42.8749 127.309 44.6096C127.309 45.8115 126.491 47.0382 124.261 47.0382C122.824 47.0382 121.77 46.493 121.089 45.7248Z" fill="white"/>
<path d="M111.556 46.8889V38.6243H116.97V39.5412H112.584V42.2052H116.883V43.1221H112.584V45.972H116.97V46.8889H111.556Z" fill="white"/>
<path d="M105.658 46.8889L100.838 40.2227V46.8889H99.8096V38.6243H100.863L105.621 45.1542V38.6243H106.649V46.8889H105.658Z" fill="white"/>
<path d="M93.8711 46.8889V38.6243H94.8995V46.8889H93.8711Z" fill="white"/>
<path d="M83.1416 45.7248L83.7487 44.9441C84.2939 45.5513 85.1861 46.1213 86.3508 46.1213C87.8253 46.1213 88.2961 45.3283 88.2961 44.6963C88.2961 43.7051 87.2925 43.4325 86.2021 43.1351C84.8763 42.7882 83.4018 42.4164 83.4018 40.7933C83.4018 39.4303 84.6161 38.501 86.2393 38.501C87.5031 38.501 88.482 38.9223 89.1759 39.6533L88.5563 40.4091C87.9368 39.7277 87.0695 39.4179 86.1649 39.4179C85.1737 39.4179 84.4674 39.9507 84.4674 40.7313C84.4674 41.5615 85.4215 41.8093 86.4747 42.0943C87.8253 42.4536 89.3617 42.8749 89.3617 44.6096C89.3617 45.8115 88.544 47.0382 86.3136 47.0382C84.8763 47.0382 83.8231 46.493 83.1416 45.7248Z" fill="white"/>
<path d="M71.9873 43.6797V38.6243H73.0157V43.6549C73.0157 45.1666 73.8335 46.1206 75.3576 46.1206C76.8816 46.1206 77.6994 45.1666 77.6994 43.6549V38.6243H78.7279V43.6673C78.7279 45.7241 77.6003 47.0376 75.3576 47.0376C73.1149 47.0376 71.9873 45.7118 71.9873 43.6797Z" fill="white"/>
<path d="M61.2207 46.8889V38.6243H64.9007C66.3381 38.6243 67.2178 39.4916 67.2178 40.7307C67.2178 41.7715 66.5239 42.4654 65.7681 42.6265C66.6478 42.7628 67.3789 43.6673 67.3789 44.6585C67.3789 45.9844 66.4991 46.8889 64.9875 46.8889H61.2207ZM62.2491 42.2052H64.7273C65.6566 42.2052 66.1522 41.6352 66.1522 40.8794C66.1522 40.1359 65.6566 39.5412 64.7273 39.5412H62.2491V42.2052ZM62.2491 45.972H64.7768C65.7433 45.972 66.3133 45.4268 66.3133 44.547C66.3133 43.7912 65.7929 43.1221 64.7768 43.1221H62.2491V45.972Z" fill="white"/>
<path d="M45.7627 46.8889V38.6243H46.7911V45.972H50.6322V46.8889H45.7627Z" fill="white"/>
<path d="M36.4727 46.8889V38.6243H37.5011V45.972H41.3422V46.8889H36.4727Z" fill="white"/>
<path d="M31.2783 46.8889L30.5472 45.055H26.3592L25.6281 46.8889H24.4883L27.8089 38.6243H29.0851L32.4182 46.8889H31.2783ZM28.4532 39.5412L26.6565 44.1381H30.2376L28.4532 39.5412Z" fill="white"/>
<path d="M19.4133 46.8889V40.012L16.6006 46.8889H16.1793L13.379 40.012V46.8889H12.3506V38.6243H13.8251L16.39 44.9188L18.9672 38.6243H20.4417V46.8889H19.4133Z" fill="white"/>
<path d="M1.62109 45.7248L2.22824 44.9441C2.77343 45.5513 3.66556 46.1213 4.83029 46.1213C6.30478 46.1213 6.77563 45.3283 6.77563 44.6963C6.77563 43.7051 5.77198 43.4325 4.6816 43.1351C3.35579 42.7882 1.8813 42.4164 1.8813 40.7933C1.8813 39.4303 3.09559 38.501 4.71877 38.501C5.98263 38.501 6.96149 38.9223 7.65537 39.6533L7.03584 40.4091C6.4163 39.7277 5.54895 39.4179 4.64443 39.4179C3.65317 39.4179 2.9469 39.9507 2.9469 40.7313C2.9469 41.5615 3.90099 41.8093 4.9542 42.0943C6.30478 42.4536 7.84123 42.8749 7.84123 44.6096C7.84123 45.8115 7.02345 47.0382 4.79312 47.0382C3.35579 47.0382 2.30258 46.493 1.62109 45.7248Z" fill="white"/>
</g>
</g>
</g>
<defs>
<clipPath id="clip0_158_751">
<rect width="160" height="47.31" fill="white"/>
</clipPath>
<clipPath id="clip1_158_751">
<rect width="160" height="47.31" fill="white"/>
</clipPath>
<clipPath id="clip2_158_751">
<rect width="159.953" height="47.31" fill="white" transform="translate(0.0234375)"/>
</clipPath>
</defs>
</svg>
