<svg width="212" height="62" viewBox="0 0 212 62" fill="none" xmlns="http://www.w3.org/2000/svg">
<g clip-path="url(#clip0_2126_203)">
<path fill-rule="evenodd" clip-rule="evenodd" d="M48.7345 3.56225L55.7662 10.5939L57.8642 8.49595L50.3945 1.02631C49.4737 0.105537 47.9799 0.108851 47.0632 1.0337L40.7159 7.43758L34.3713 1.03645C33.4517 0.108704 31.9521 0.108705 31.0326 1.03645L24.688 7.43758L18.3434 1.03645C17.4239 0.108706 15.9243 0.108702 15.0047 1.03645L0.681061 15.4878C0.244775 15.928 0 16.5227 0 17.1424V43.9379H2.96701V17.3962L16.6741 3.56695L23.0187 9.96809C23.9382 10.8958 25.4378 10.8958 26.3574 9.96809L32.7019 3.56695L39.0465 9.96809C39.9661 10.8958 41.4657 10.8958 42.3852 9.96809L48.7345 3.56225Z" fill="#E86868"/>
<path d="M18.2475 43.1558C17.2162 43.1558 16.1369 43.0239 15.0096 42.7601C13.8824 42.4963 12.971 42.1605 12.2754 41.7527L12.0955 37.1118L13.6425 36.9679L14.6499 40.1698C15.2255 40.5535 15.8611 40.8533 16.5566 41.0692C17.2521 41.2611 17.9956 41.357 18.7871 41.357C19.9863 41.357 20.9337 41.0692 21.6292 40.4936C22.3488 39.918 22.7085 39.1385 22.7085 38.1551C22.7085 37.3157 22.4567 36.6201 21.953 36.0685C21.4494 35.4929 20.7898 35.0012 19.9743 34.5935C19.1829 34.1857 18.3314 33.778 17.42 33.3703C16.5326 32.9626 15.6812 32.5069 14.8657 32.0032C14.0742 31.4755 13.4267 30.84 12.923 30.0965C12.4193 29.329 12.1675 28.3816 12.1675 27.2543C12.1675 26.0791 12.4913 25.0598 13.1389 24.1964C13.7864 23.3089 14.6858 22.6134 15.8371 22.1097C17.0123 21.6061 18.3434 21.3542 19.8304 21.3542C20.454 21.3542 21.0536 21.3902 21.6292 21.4622C22.2288 21.5101 22.7805 21.5941 23.2841 21.714C23.7878 21.8339 24.2435 21.9898 24.6512 22.1817L24.9391 26.6787L23.3921 26.8226L22.3847 23.8006C21.6412 23.3209 20.6579 23.0811 19.4347 23.0811C18.2115 23.0811 17.2282 23.3809 16.4846 23.9805C15.7651 24.5561 15.4054 25.3356 15.4054 26.319C15.4054 27.1824 15.6572 27.9019 16.1609 28.4775C16.6885 29.0531 17.3481 29.5568 18.1395 29.9885C18.955 30.4202 19.8064 30.84 20.6939 31.2477C21.6053 31.6554 22.4567 32.1111 23.2482 32.6148C24.0636 33.1185 24.7232 33.742 25.2269 34.4856C25.7545 35.2051 26.0183 36.1045 26.0183 37.1838C26.0183 38.335 25.6826 39.3663 25.011 40.2777C24.3634 41.1651 23.452 41.8727 22.2768 42.4003C21.1016 42.904 19.7585 43.1558 18.2475 43.1558ZM29.9743 42.832L29.9023 41.5369L32.1329 40.9972C32.1808 40.7334 32.2168 40.3377 32.2408 39.81C32.2648 39.2584 32.2768 38.5269 32.2768 37.6155C32.3007 36.7041 32.3127 35.5888 32.3127 34.2697V29.7727C32.3127 28.9572 32.3007 28.0818 32.2768 27.1464C32.2768 26.211 32.2648 25.3116 32.2408 24.4482C32.2408 23.5608 32.2288 22.7933 32.2048 22.1457C32.2048 21.4981 32.1928 21.0664 32.1688 20.8506L29.5066 20.4908L29.4346 19.3396L34.5073 17.8645L35.1908 18.3682C35.1668 19.1117 35.1429 19.8552 35.1189 20.5987C35.0949 21.3422 35.0709 22.1457 35.0469 23.0091C35.0469 23.8486 35.0349 24.808 35.011 25.8872C35.011 26.9665 35.011 28.2137 35.011 29.6288L35.1189 29.6647C35.9583 28.7533 36.7738 28.0938 37.5653 27.686C38.3807 27.2783 39.2681 27.0745 40.2275 27.0745C41.1149 27.0745 41.9424 27.3023 42.7099 27.758C43.5013 28.2137 44.1369 28.9092 44.6166 29.8446C45.1203 30.756 45.3721 31.9312 45.3721 33.3703V37.2557C45.3721 38.1191 45.3961 38.8986 45.4441 39.5942C45.492 40.2657 45.54 40.7334 45.588 40.9972L47.8185 41.5369L47.7465 42.832H40.5153L40.4074 41.5369L42.494 40.9972C42.518 40.8054 42.542 40.5655 42.566 40.2777C42.5899 39.9899 42.6019 39.6301 42.6019 39.1984C42.6259 38.7427 42.6379 38.1791 42.6379 37.5076V33.6221C42.6379 32.5908 42.458 31.7634 42.0983 31.1398C41.7625 30.4922 41.3188 30.0245 40.7671 29.7367C40.2155 29.4249 39.6279 29.269 39.0043 29.269C38.2368 29.269 37.5053 29.4729 36.8098 29.8806C36.1142 30.2643 35.5266 30.804 35.0469 31.4995V36.896C35.0469 37.9992 35.0589 38.9106 35.0829 39.6301C35.1309 40.3497 35.1788 40.8054 35.2268 40.9972L37.4214 41.5369L37.3494 42.832H29.9743ZM57.1709 43.1198C56.2115 43.1198 55.3601 42.928 54.6165 42.5442C53.873 42.1605 53.2854 41.6688 52.8537 41.0692C52.446 40.4696 52.2421 39.846 52.2421 39.1984C52.2421 38.383 52.5059 37.7114 53.0336 37.1838C53.5612 36.6561 54.4247 36.2004 55.6239 35.8167L61.0923 33.9819V32.1471C61.0923 31.5475 60.9124 31.0079 60.5526 30.5282C60.1929 30.0245 59.7132 29.6288 59.1136 29.341C58.514 29.0531 57.8424 28.9092 57.0989 28.9092C56.4993 28.9092 56.0916 29.0412 55.8757 29.305C55.6599 29.5448 55.5279 30.0365 55.48 30.78L55.408 32.291C54.5446 32.4829 53.8131 32.4589 53.2135 32.2191C52.6139 31.9552 52.3141 31.5355 52.3141 30.9599C52.3141 30.5522 52.482 30.1444 52.8177 29.7367C53.1775 29.329 53.6452 28.9452 54.2208 28.5855C54.7964 28.2017 55.42 27.8779 56.0916 27.6141C56.7631 27.3503 57.4227 27.1704 58.0703 27.0745C59.8451 27.0745 61.2601 27.5421 62.3155 28.4775C63.3947 29.4129 63.9464 30.6361 63.9704 32.1471L63.8984 38.1911C63.8984 38.6468 63.9104 39.0905 63.9344 39.5222C63.9823 39.9539 64.0423 40.2777 64.1143 40.4936L66.4167 40.9253V42.0406L64.6539 42.6881C64.3181 42.808 64.0063 42.904 63.7185 42.9759C63.4307 43.0719 63.1909 43.1198 62.999 43.1198C62.2555 43.1198 61.7758 42.7001 61.56 41.8607L61.1642 40.4576H61.7039C60.9124 41.345 60.1449 42.0166 59.4014 42.4723C58.6819 42.904 57.9383 43.1198 57.1709 43.1198ZM58.1422 40.9972C58.6938 40.9972 59.2095 40.8773 59.6892 40.6375C60.1689 40.3737 60.6366 39.9779 61.0923 39.4503V35.6728L57.0629 36.7521C56.4873 36.896 56.0676 37.1238 55.8038 37.4356C55.5639 37.7474 55.444 38.1431 55.444 38.6228C55.444 39.2224 55.7078 39.7741 56.2355 40.2777C56.7871 40.7574 57.4227 40.9972 58.1422 40.9972ZM69.833 42.832L69.7251 41.5369L71.9556 40.9972C71.9796 40.8773 72.0036 40.6615 72.0276 40.3497C72.0516 40.0379 72.0636 39.6182 72.0636 39.0905C72.0875 38.5629 72.0995 37.9153 72.0995 37.1478L72.1355 34.3416C72.1355 33.5502 72.0995 32.7707 72.0276 32.0032C71.9796 31.2357 71.9197 30.6241 71.8477 30.1684L69.5452 29.6647V28.4775L74.366 27.1464L74.8697 27.6501L74.7258 30.6721L74.8337 30.7081C75.5533 29.317 76.2848 28.3816 77.0283 27.9019C77.7718 27.3982 78.4673 27.1464 79.1149 27.1464C79.6665 27.1464 80.1222 27.2903 80.482 27.5781C80.8657 27.8419 81.0576 28.2497 81.0576 28.8013C81.0576 29.3769 80.8538 29.8206 80.446 30.1324C80.0623 30.4202 79.5706 30.5641 78.971 30.5641C78.5393 30.5641 78.1196 30.4682 77.7118 30.2763C77.3281 30.0845 76.9563 29.8206 76.5966 29.4849L77.2441 29.7007C76.7884 29.9885 76.3567 30.3963 75.949 30.9239C75.5413 31.4276 75.1695 32.0632 74.8337 32.8306L74.8697 36.1764C74.8937 36.776 74.9177 37.3996 74.9417 38.0472C74.9656 38.6948 74.9896 39.2824 75.0136 39.81C75.0376 40.3137 75.0616 40.7094 75.0856 40.9972L78.2155 41.4649L78.1435 42.832H69.833ZM84.402 42.832L84.294 41.5369L86.5246 40.9972C86.5485 40.8773 86.5725 40.6615 86.5965 40.3497C86.6205 40.0379 86.6325 39.6182 86.6325 39.0905C86.6565 38.5629 86.6685 37.9153 86.6685 37.1478L86.7044 34.3416C86.7044 33.5502 86.6685 32.7707 86.5965 32.0032C86.5485 31.2357 86.4886 30.6241 86.4166 30.1684L84.1142 29.6647V28.4775L88.935 27.1464L89.4386 27.6501L89.2947 30.6721L89.4027 30.7081C90.1222 29.317 90.8537 28.3816 91.5972 27.9019C92.3407 27.3982 93.0363 27.1464 93.6838 27.1464C94.2355 27.1464 94.6912 27.2903 95.0509 27.5781C95.4347 27.8419 95.6265 28.2497 95.6265 28.8013C95.6265 29.3769 95.4227 29.8206 95.0149 30.1324C94.6312 30.4202 94.1395 30.5641 93.5399 30.5641C93.1082 30.5641 92.6885 30.4682 92.2808 30.2763C91.897 30.0845 91.5253 29.8206 91.1655 29.4849L91.8131 29.7007C91.3574 29.9885 90.9257 30.3963 90.5179 30.9239C90.1102 31.4276 89.7384 32.0632 89.4027 32.8306L89.4386 36.1764C89.4626 36.776 89.4866 37.3996 89.5106 38.0472C89.5346 38.6948 89.5586 39.2824 89.5825 39.81C89.6065 40.3137 89.6305 40.7094 89.6545 40.9972L92.7844 41.4649L92.7125 42.832H84.402ZM106.238 43.1198C104.679 43.1198 103.312 42.7841 102.137 42.1125C100.986 41.441 100.086 40.5056 99.4386 39.3064C98.791 38.0832 98.4672 36.6921 98.4672 35.1331C98.4672 33.5022 98.827 32.0871 99.5465 30.8879C100.266 29.6887 101.225 28.7533 102.425 28.0818C103.624 27.4102 104.943 27.0745 106.382 27.0745C107.869 27.0745 109.164 27.4102 110.267 28.0818C111.395 28.7294 112.258 29.6527 112.858 30.852C113.481 32.0272 113.793 33.4063 113.793 34.9892C113.793 36.5002 113.457 37.8673 112.786 39.0905C112.114 40.3137 111.203 41.297 110.052 42.0406C108.924 42.7601 107.653 43.1198 106.238 43.1198ZM106.598 41.429C107.413 41.429 108.121 41.1891 108.72 40.7094C109.32 40.2058 109.788 39.5222 110.124 38.6588C110.459 37.7714 110.627 36.764 110.627 35.6368C110.627 33.5742 110.195 31.9073 109.332 30.6361C108.493 29.341 107.377 28.6934 105.986 28.6934C104.691 28.6934 103.648 29.233 102.856 30.3123C102.089 31.3916 101.705 32.8187 101.705 34.5935C101.705 35.9366 101.909 37.1238 102.317 38.1551C102.748 39.1864 103.336 39.9899 104.08 40.5655C104.823 41.1411 105.662 41.429 106.598 41.429ZM134.802 42.9759L129.297 29.197L127.463 28.6574L127.535 27.3623H134.154L134.226 28.6574L132.355 29.197L136.529 40.1338L135.629 40.1698L139.91 29.197L138.04 28.6574L138.112 27.3623H143.688L143.76 28.6574L142.069 29.197L135.917 42.9759H134.802ZM124.333 42.9759L118.505 29.197L116.814 28.6574L116.886 27.3623H123.541L123.613 28.6574L121.778 29.197L126.239 40.1338L125.16 40.1698L129.909 28.8733L130.88 31.1038L125.448 42.9759H124.333Z" fill="#FDFAE9"/>
<path d="M153.803 42.94L145.96 23.5848L144.125 23.0811L144.233 21.714H151.68L151.752 23.0811L149.558 23.5848L155.746 39.2704H155.026L160.818 23.5848L158.3 23.0811L158.408 21.714H165.028L165.099 23.0811L163.301 23.5848L155.314 42.94H153.803ZM171.969 43.1198C171.01 43.1198 170.159 42.928 169.415 42.5442C168.672 42.1605 168.084 41.6688 167.652 41.0692C167.245 40.4696 167.041 39.846 167.041 39.1984C167.041 38.383 167.305 37.7114 167.832 37.1838C168.36 36.6561 169.223 36.2004 170.422 35.8167L175.891 33.9819V32.1471C175.891 31.5475 175.711 31.0079 175.351 30.5282C174.991 30.0245 174.512 29.6288 173.912 29.341C173.313 29.0531 172.641 28.9092 171.898 28.9092C171.298 28.9092 170.89 29.0412 170.674 29.305C170.458 29.5448 170.327 30.0365 170.279 30.78L170.207 32.291C169.343 32.4829 168.612 32.4589 168.012 32.2191C167.412 31.9552 167.113 31.5355 167.113 30.9599C167.113 30.5522 167.281 30.1444 167.616 29.7367C167.976 29.329 168.444 28.9452 169.019 28.5855C169.595 28.2017 170.219 27.8779 170.89 27.6141C171.562 27.3503 172.221 27.1704 172.869 27.0745C174.644 27.0745 176.059 27.5421 177.114 28.4775C178.193 29.4129 178.745 30.6361 178.769 32.1471L178.697 38.1911C178.697 38.6468 178.709 39.0905 178.733 39.5222C178.781 39.9539 178.841 40.2777 178.913 40.4936L181.215 40.9253V42.0406L179.453 42.6881C179.117 42.808 178.805 42.904 178.517 42.9759C178.229 43.0719 177.989 43.1198 177.798 43.1198C177.054 43.1198 176.574 42.7001 176.359 41.8607L175.963 40.4576H176.502C175.711 41.345 174.944 42.0166 174.2 42.4723C173.48 42.904 172.737 43.1198 171.969 43.1198ZM172.941 40.9972C173.492 40.9972 174.008 40.8773 174.488 40.6375C174.967 40.3737 175.435 39.9779 175.891 39.4503V35.6728L171.862 36.7521C171.286 36.896 170.866 37.1238 170.602 37.4356C170.363 37.7474 170.243 38.1431 170.243 38.6228C170.243 39.2224 170.506 39.7741 171.034 40.2777C171.586 40.7574 172.221 40.9972 172.941 40.9972ZM184.452 42.832L184.38 41.5009L186.718 40.9972C186.766 40.7574 186.802 40.3617 186.826 39.81C186.85 39.2584 186.862 38.5269 186.862 37.6155C186.886 36.7041 186.898 35.5888 186.898 34.2697V29.7727C186.898 28.8613 186.886 27.9259 186.862 26.9665C186.862 26.0072 186.85 25.1078 186.826 24.2683C186.826 23.4049 186.814 22.6734 186.79 22.0738C186.79 21.4502 186.778 21.0424 186.754 20.8506L184.092 20.4908L184.02 19.3396L189.165 17.8645L189.848 18.3682C189.824 19.3755 189.8 20.3829 189.776 21.3902C189.752 22.3975 189.728 23.5128 189.704 24.736C189.704 25.9592 189.704 27.4342 189.704 29.1611L189.668 34.9532C189.668 36.3683 189.68 37.6515 189.704 38.8027C189.752 39.93 189.8 40.6615 189.848 40.9972L192.187 41.5009L192.115 42.832H184.452ZM203.518 43.1198C202.127 43.1198 200.867 42.808 199.74 42.1845C198.637 41.5609 197.75 40.6735 197.078 39.5222C196.43 38.347 196.107 36.9679 196.107 35.385C196.107 33.6821 196.454 32.2071 197.15 30.9599C197.845 29.7127 198.757 28.7533 199.884 28.0818C201.011 27.3862 202.223 27.0505 203.518 27.0745C205.388 27.0984 206.852 27.722 207.907 28.9452C208.962 30.1684 209.49 31.8953 209.49 34.1258V34.7734H198.445V33.1904H207.115L206.72 33.6581V32.9026C206.72 31.5115 206.408 30.4442 205.784 29.7007C205.161 28.9572 204.309 28.5855 203.23 28.5855C202.558 28.5855 201.911 28.7893 201.287 29.197C200.664 29.5808 200.16 30.1804 199.776 30.9959C199.392 31.7873 199.201 32.7947 199.201 34.0179V34.4496C199.201 36.4163 199.68 37.9513 200.64 39.0545C201.623 40.1578 202.882 40.7094 204.417 40.7094C205.257 40.7094 206.012 40.5415 206.684 40.2058C207.355 39.87 208.003 39.3303 208.626 38.5868L209.526 39.4143C208.854 40.6615 208.003 41.5968 206.971 42.2204C205.94 42.82 204.789 43.1198 203.518 43.1198Z" fill="#FDFAE9"/>
<path d="M2.08007 60.2311L2.84946 59.2418C3.54034 60.0112 4.67087 60.7335 6.14684 60.7335C8.01535 60.7335 8.61202 59.7286 8.61202 58.9278C8.61202 57.6717 7.34017 57.3262 5.95841 56.9494C4.27832 56.5097 2.40981 56.0387 2.40981 53.9817C2.40981 52.2545 3.94858 51.0769 6.00552 51.0769C7.6071 51.0769 8.84755 51.6108 9.72685 52.5372L8.94176 53.495C8.15667 52.6314 7.05754 52.2388 5.91131 52.2388C4.65516 52.2388 3.76016 52.914 3.76016 53.9032C3.76016 54.9553 4.9692 55.2693 6.30385 55.6304C8.01535 56.0858 9.96238 56.6196 9.96238 58.8179C9.96238 60.341 8.92606 61.8955 6.09973 61.8955C4.27832 61.8955 2.94367 61.2046 2.08007 60.2311ZM21.2196 61.707V56.9023H15.0959V61.707H13.7926V51.2339H15.0959V55.7403H21.2196V51.2339H22.5228V61.707H21.2196ZM26.8552 61.707V51.2339H33.7169V52.3959H28.1584V55.7717H33.607V56.9337H28.1584V60.5451H33.7169V61.707H26.8552ZM37.679 61.707V51.2339H44.5407V52.3959H38.9823V55.7717H44.4308V56.9337H38.9823V61.707H37.679ZM48.1962 61.707V51.2339H55.0578V52.3959H49.4994V55.7717H54.9479V56.9337H49.4994V61.707H48.1962ZM58.7133 61.707V51.2339H60.0166V61.707H58.7133ZM64.3543 61.707V51.2339H71.216V52.3959H65.6576V55.7717H71.1061V56.9337H65.6576V60.5451H71.216V61.707H64.3543ZM75.1781 61.707V51.2339H76.4814V60.5451H81.3489V61.707H75.1781ZM85.0666 61.707V51.2339H88.6466C91.8969 51.2339 94.0166 53.5107 94.0166 56.4783C94.0166 59.4617 91.8969 61.707 88.6466 61.707H85.0666ZM86.3698 60.5451H88.6466C91.1903 60.5451 92.6663 58.7237 92.6663 56.4783C92.6663 54.2173 91.2374 52.3959 88.6466 52.3959H86.3698V60.5451ZM108.792 61.8955C105.824 61.8955 103.454 59.6972 103.454 56.4783C103.454 53.2595 105.824 51.0612 108.792 51.0612C110.692 51.0612 111.98 51.9562 112.812 53.1338L111.713 53.7462C111.116 52.8669 110.033 52.2231 108.792 52.2231C106.547 52.2231 104.804 53.9817 104.804 56.4783C104.804 58.9592 106.547 60.7335 108.792 60.7335C110.033 60.7335 111.116 60.1054 111.713 59.2104L112.827 59.8228C111.948 61.0162 110.692 61.8955 108.792 61.8955ZM115.949 56.4783C115.949 53.3851 118.037 51.0612 121.146 51.0612C124.239 51.0612 126.343 53.3851 126.343 56.4783C126.343 59.5716 124.239 61.8955 121.146 61.8955C118.037 61.8955 115.949 59.5716 115.949 56.4783ZM124.993 56.4783C124.993 54.0288 123.486 52.2231 121.146 52.2231C118.791 52.2231 117.299 54.0288 117.299 56.4783C117.299 58.9121 118.791 60.7335 121.146 60.7335C123.486 60.7335 124.993 58.9121 124.993 56.4783ZM139.213 61.707V52.9925L135.649 61.707H135.115L131.567 52.9925V61.707H130.263V51.2339H132.132L135.382 59.2104L138.648 51.2339H140.517V61.707H139.213ZM153.794 61.707V52.9925L150.23 61.707H149.696L146.147 52.9925V61.707H144.844V51.2339H146.712L149.963 59.2104L153.229 51.2339H155.097V61.707H153.794ZM159.424 57.6403V51.2339H160.728V57.6089C160.728 59.5245 161.764 60.7335 163.695 60.7335C165.627 60.7335 166.663 59.5245 166.663 57.6089V51.2339H167.966V57.6246C167.966 60.2311 166.537 61.8955 163.695 61.8955C160.853 61.8955 159.424 60.2154 159.424 57.6403ZM179.714 61.707L173.606 53.2595V61.707H172.303V51.2339H173.638L179.667 59.5088V51.2339H180.97V61.707H179.714ZM185.304 61.707V51.2339H186.607V61.707H185.304ZM193.536 61.707V52.3959H190.223V51.2339H198.168V52.3959H194.839V61.707H193.536ZM204.831 61.707V57.2791L200.701 51.2339H202.224L205.474 56.1015L208.725 51.2339H210.248L206.134 57.2791V61.707H204.831Z" fill="#FDFAE9"/>
</g>
<defs>
<clipPath id="clip0_2126_203">
<rect width="211.089" height="61.37" fill="white" transform="translate(0 0.337891)"/>
</clipPath>
</defs>
</svg>
