<svg width="142" height="42" viewBox="0 0 142 42" fill="none" xmlns="http://www.w3.org/2000/svg">
<path fill-rule="evenodd" clip-rule="evenodd" d="M32.8509 2.17347L37.5908 6.91339L39.005 5.49918L33.9699 0.464049C33.3492 -0.156625 32.3422 -0.154391 31.7243 0.469031L27.4457 4.78575L23.169 0.470885C22.5491 -0.15449 21.5383 -0.154489 20.9184 0.470885L16.6417 4.78575L12.3649 0.470885C11.7451 -0.154489 10.7342 -0.154491 10.1144 0.470884L0.459089 10.2122C0.164998 10.509 0 10.9098 0 11.3276V29.3899H2V11.4987L11.2397 2.17664L15.5164 6.49151C16.1362 7.11689 17.1471 7.11689 17.7669 6.49151L22.0437 2.17664L26.3204 6.49151C26.9403 7.11689 27.9511 7.11689 28.571 6.49151L32.8509 2.17347Z" fill="#E86868"/>
<path d="M90.8671 28.5854L87.1567 19.2973L85.9199 18.9336L85.9684 18.0605H90.4306L90.4791 18.9336L89.218 19.2973L92.0311 26.6696L91.4249 26.6938L94.3107 19.2973L93.0497 18.9336L93.0982 18.0605H96.857L96.9056 18.9336L95.7658 19.2973L91.6189 28.5854H90.8671ZM83.8101 28.5854L79.8815 19.2973L78.7417 18.9336L78.7902 18.0605H83.2766L83.3251 18.9336L82.0883 19.2973L85.0954 26.6696L84.3679 26.6938L87.569 19.0791L88.2238 20.5826L84.5619 28.5854H83.8101Z" fill="#252525"/>
<path d="M71.6129 28.683C70.5621 28.683 69.6405 28.4567 68.8483 28.004C68.0723 27.5513 67.466 26.9208 67.0295 26.1125C66.593 25.2879 66.3748 24.3502 66.3748 23.2994C66.3748 22.2 66.6173 21.2461 67.1023 20.4378C67.5873 19.6294 68.234 18.9989 69.0423 18.5462C69.8507 18.0935 70.7399 17.8672 71.7099 17.8672C72.7123 17.8672 73.5853 18.0935 74.329 18.5462C75.0889 18.9827 75.6709 19.6052 76.0751 20.4135C76.4954 21.2057 76.7056 22.1353 76.7056 23.2024C76.7056 24.2209 76.4793 25.1424 76.0266 25.967C75.5739 26.7915 74.9595 27.4543 74.1835 27.9555C73.4237 28.4405 72.5668 28.683 71.6129 28.683ZM71.8554 27.5433C72.4051 27.5433 72.8821 27.3816 73.2862 27.0582C73.6904 26.7187 74.0057 26.258 74.232 25.6759C74.4584 25.0778 74.5715 24.3987 74.5715 23.6389C74.5715 22.2485 74.2805 21.1249 73.6985 20.268C73.1326 19.395 72.3809 18.9585 71.4432 18.9585C70.5701 18.9585 69.8669 19.3222 69.3334 20.0498C68.816 20.7773 68.5573 21.7392 68.5573 22.9356C68.5573 23.841 68.6948 24.6412 68.9696 25.3364C69.2606 26.0316 69.6567 26.5732 70.1579 26.9612C70.6591 27.3493 71.2249 27.5433 71.8554 27.5433Z" fill="#252525"/>
<path d="M56.8935 28.4874L56.8207 27.6144L58.3243 27.2506C58.3404 27.1698 58.3566 27.0243 58.3728 26.8141C58.3889 26.6039 58.397 26.321 58.397 25.9653C58.4132 25.6096 58.4213 25.1731 58.4213 24.6558L58.4455 22.7642C58.4455 22.2307 58.4213 21.7053 58.3728 21.1879C58.3404 20.6706 58.3 20.2583 58.2515 19.9511L56.6995 19.6116V18.8113L59.9491 17.9141L60.2886 18.2536L60.1916 20.2906L60.2643 20.3149C60.7493 19.3772 61.2424 18.7467 61.7436 18.4233C62.2448 18.0838 62.7137 17.9141 63.1502 17.9141C63.522 17.9141 63.8292 18.0111 64.0717 18.2051C64.3304 18.3829 64.4597 18.6578 64.4597 19.0296C64.4597 19.4176 64.3223 19.7167 64.0475 19.9269C63.7888 20.1209 63.4574 20.2179 63.0532 20.2179C62.7622 20.2179 62.4792 20.1532 62.2044 20.0239C61.9457 19.8945 61.6951 19.7167 61.4526 19.4904L61.8891 19.6359C61.582 19.8299 61.2909 20.1047 61.0161 20.4604C60.7413 20.7999 60.4907 21.2283 60.2643 21.7457L60.2886 24.001C60.3047 24.4052 60.3209 24.8255 60.3371 25.2621C60.3532 25.6986 60.3694 26.0947 60.3856 26.4503C60.4018 26.7899 60.4179 27.0566 60.4341 27.2506L62.5439 27.5659L62.4954 28.4874H56.8935Z" fill="#252525"/>
<path d="M47.0729 28.4874L47.0002 27.6144L48.5037 27.2506C48.5199 27.1698 48.536 27.0243 48.5522 26.8141C48.5684 26.6039 48.5765 26.321 48.5765 25.9653C48.5926 25.6096 48.6007 25.1731 48.6007 24.6558L48.625 22.7642C48.625 22.2307 48.6007 21.7053 48.5522 21.1879C48.5199 20.6706 48.4795 20.2583 48.431 19.9511L46.8789 19.6116V18.8113L50.1285 17.9141L50.468 18.2536L50.371 20.2906L50.4438 20.3149C50.9288 19.3772 51.4219 18.7467 51.9231 18.4233C52.4243 18.0838 52.8931 17.9141 53.3296 17.9141C53.7015 17.9141 54.0086 18.0111 54.2512 18.2051C54.5098 18.3829 54.6392 18.6578 54.6392 19.0296C54.6392 19.4176 54.5017 19.7167 54.2269 19.9269C53.9682 20.1209 53.6368 20.2179 53.2326 20.2179C52.9416 20.2179 52.6587 20.1532 52.3838 20.0239C52.1252 19.8945 51.8746 19.7167 51.6321 19.4904L52.0686 19.6359C51.7614 19.8299 51.4704 20.1047 51.1955 20.4604C50.9207 20.7999 50.6701 21.2283 50.4438 21.7457L50.468 24.001C50.4842 24.4052 50.5004 24.8255 50.5165 25.2621C50.5327 25.6986 50.5489 26.0947 50.565 26.4503C50.5812 26.7899 50.5974 27.0566 50.6135 27.2506L52.7234 27.5659L52.6748 28.4874H47.0729Z" fill="#252525"/>
<path d="M38.5377 28.683C37.891 28.683 37.3171 28.5537 36.8159 28.295C36.3147 28.0364 35.9186 27.7049 35.6276 27.3007C35.3528 26.8966 35.2153 26.4762 35.2153 26.0397C35.2153 25.49 35.3932 25.0373 35.7488 24.6817C36.1045 24.326 36.6865 24.0188 37.4949 23.7601L41.181 22.5233V21.2866C41.181 20.8824 41.0598 20.5186 40.8173 20.1953C40.5748 19.8558 40.2514 19.589 39.8472 19.395C39.4431 19.201 38.9904 19.104 38.4892 19.104C38.085 19.104 37.8102 19.1929 37.6647 19.3707C37.5192 19.5324 37.4302 19.8638 37.3979 20.365L37.3494 21.3836C36.7674 21.5129 36.2743 21.4967 35.8701 21.3351C35.4659 21.1572 35.2638 20.8743 35.2638 20.4863C35.2638 20.2114 35.377 19.9366 35.6033 19.6617C35.8459 19.3869 36.1611 19.1282 36.5491 18.8857C36.9371 18.627 37.3575 18.4088 37.8102 18.2309C38.2628 18.0531 38.7074 17.9319 39.144 17.8672C40.3403 17.8672 41.2942 18.1824 42.0056 18.813C42.7331 19.4435 43.1049 20.268 43.1211 21.2866L43.0726 25.3607C43.0726 25.6679 43.0807 25.967 43.0968 26.258C43.1292 26.549 43.1696 26.7672 43.2181 26.9127L44.7701 27.2037V27.9555L43.5819 28.392C43.3555 28.4729 43.1453 28.5375 42.9513 28.586C42.7573 28.6507 42.5957 28.683 42.4663 28.683C41.9651 28.683 41.6418 28.4001 41.4963 27.8343L41.2295 26.8885H41.5933C41.0598 27.4867 40.5424 27.9394 40.0412 28.2465C39.5562 28.5375 39.055 28.683 38.5377 28.683ZM39.1925 27.2522C39.5643 27.2522 39.9119 27.1714 40.2352 27.0097C40.5586 26.8319 40.8739 26.5651 41.181 26.2095V23.6631L38.4649 24.3907C38.0769 24.4877 37.794 24.6412 37.6162 24.8514C37.4545 25.0616 37.3737 25.3284 37.3737 25.6517C37.3737 26.0559 37.5515 26.4277 37.9072 26.7672C38.279 27.0906 38.7074 27.2522 39.1925 27.2522Z" fill="#252525"/>
<path d="M20.2051 28.4883L20.1566 27.6152L21.6601 27.2515C21.6925 27.0736 21.7167 26.8069 21.7329 26.4512C21.749 26.0793 21.7571 25.5862 21.7571 24.9719C21.7733 24.3575 21.7814 23.6058 21.7814 22.7166V19.6852C21.7814 19.1355 21.7733 18.5454 21.7571 17.9149C21.7571 17.2844 21.749 16.6781 21.7329 16.0961C21.7329 15.4979 21.7248 14.9806 21.7086 14.544C21.7086 14.1075 21.7005 13.8165 21.6844 13.671L19.8898 13.4285L19.8413 12.6525L23.2607 11.6582L23.7214 11.9977C23.7053 12.4989 23.6891 13.0001 23.6729 13.5013C23.6568 14.0024 23.6406 14.544 23.6244 15.1261C23.6244 15.6919 23.6164 16.3386 23.6002 17.0661C23.6002 17.7937 23.6002 18.6344 23.6002 19.5882L23.6729 19.6125C24.2388 18.9981 24.7885 18.5535 25.322 18.2787C25.8717 18.0038 26.4699 17.8664 27.1165 17.8664C27.7147 17.8664 28.2725 18.02 28.7899 18.3272C29.3234 18.6344 29.7518 19.1032 30.0751 19.7337C30.4147 20.3481 30.5844 21.1403 30.5844 22.1103V24.7294C30.5844 25.3114 30.6006 25.8368 30.6329 26.3057C30.6652 26.7584 30.6976 27.0736 30.7299 27.2515L32.2335 27.6152L32.185 28.4883H27.3106L27.2378 27.6152L28.6444 27.2515C28.6605 27.1221 28.6767 26.9605 28.6929 26.7665C28.709 26.5724 28.7171 26.3299 28.7171 26.0389C28.7333 25.7318 28.7414 25.3518 28.7414 24.8991V22.2801C28.7414 21.5849 28.6201 21.0271 28.3776 20.6067C28.1512 20.1702 27.8522 19.855 27.4803 19.661C27.1085 19.4508 26.7124 19.3457 26.292 19.3457C25.7747 19.3457 25.2816 19.4831 24.8127 19.758C24.3439 20.0166 23.9478 20.3804 23.6244 20.8493V24.4869C23.6244 25.2306 23.6325 25.8449 23.6487 26.3299C23.681 26.815 23.7134 27.1221 23.7457 27.2515L25.225 27.6152L25.1765 28.4883H20.2051Z" fill="#252525"/>
<path d="M12.3002 28.7058C11.605 28.7058 10.8775 28.6168 10.1176 28.439C9.35778 28.2612 8.74342 28.0348 8.27457 27.76L8.15332 24.6316L9.1961 24.5346L9.87513 26.6929C10.2631 26.9516 10.6916 27.1537 11.1604 27.2992C11.6293 27.4285 12.1305 27.4932 12.664 27.4932C13.4723 27.4932 14.1109 27.2992 14.5798 26.9112C15.0648 26.5232 15.3073 25.9977 15.3073 25.3349C15.3073 24.769 15.1376 24.3002 14.798 23.9283C14.4585 23.5403 14.0139 23.2089 13.4642 22.9341C12.9307 22.6592 12.3568 22.3844 11.7424 22.1095C11.1443 21.8347 10.5703 21.5275 10.0206 21.188C9.48711 20.8323 9.0506 20.4039 8.71109 19.9027C8.37158 19.3854 8.20182 18.7468 8.20182 17.9869C8.20182 17.1947 8.42008 16.5076 8.85659 15.9256C9.29311 15.3274 9.89938 14.8585 10.6754 14.519C11.4676 14.1795 12.3649 14.0098 13.3672 14.0098C13.7876 14.0098 14.1918 14.034 14.5798 14.0825C14.984 14.1149 15.3558 14.1714 15.6953 14.2523C16.0348 14.3331 16.342 14.4382 16.6168 14.5675L16.8109 17.5989L15.7681 17.6959L15.089 15.6588C14.5879 15.3355 13.925 15.1738 13.1005 15.1738C12.276 15.1738 11.6131 15.3759 11.1119 15.7801C10.6269 16.1681 10.3844 16.6935 10.3844 17.3564C10.3844 17.9384 10.5541 18.4234 10.8937 18.8114C11.2493 19.1994 11.6939 19.5389 12.2275 19.83C12.7771 20.121 13.3511 20.4039 13.9493 20.6787C14.5636 20.9536 15.1376 21.2608 15.6711 21.6003C16.2208 21.9398 16.6654 22.3601 17.0049 22.8613C17.3605 23.3463 17.5384 23.9526 17.5384 24.6801C17.5384 25.4561 17.312 26.1513 16.8594 26.7657C16.4228 27.3639 15.8085 27.8408 15.0163 28.1965C14.2241 28.536 13.3187 28.7058 12.3002 28.7058Z" fill="#252525"/>
<path d="M137.187 28.6819C136.249 28.6819 135.401 28.4717 134.641 28.0514C133.897 27.631 133.299 27.0328 132.846 26.2568C132.41 25.4646 132.191 24.535 132.191 23.468C132.191 22.3201 132.426 21.3258 132.895 20.4851C133.364 19.6444 133.978 18.9977 134.738 18.5451C135.498 18.0762 136.314 17.8499 137.187 17.866C138.448 17.8822 139.434 18.3026 140.146 19.1271C140.857 19.9516 141.213 21.1157 141.213 22.6192V23.0557H133.768V21.9887H139.612L139.345 22.3039V21.7947C139.345 20.857 139.135 20.1375 138.715 19.6364C138.295 19.1352 137.721 18.8846 136.993 18.8846C136.54 18.8846 136.104 19.022 135.684 19.2968C135.263 19.5555 134.924 19.9597 134.665 20.5094C134.406 21.0429 134.277 21.7219 134.277 22.5464V22.8375C134.277 24.1632 134.6 25.1979 135.247 25.9416C135.91 26.6853 136.759 27.0571 137.793 27.0571C138.359 27.0571 138.868 26.9439 139.321 26.7176C139.774 26.4912 140.21 26.1275 140.631 25.6263L141.237 26.1841C140.784 27.0248 140.21 27.6553 139.515 28.0756C138.82 28.4798 138.044 28.6819 137.187 28.6819Z" fill="#252525"/>
<path d="M124.335 28.4883L124.286 27.591L125.863 27.2515C125.895 27.0898 125.919 26.823 125.936 26.4512C125.952 26.0793 125.96 25.5862 125.96 24.9719C125.976 24.3575 125.984 23.6058 125.984 22.7166V19.6852C125.984 19.0709 125.976 18.4403 125.96 17.7937C125.96 17.147 125.952 16.5407 125.936 15.9748C125.936 15.3928 125.927 14.8997 125.911 14.4955C125.911 14.0752 125.903 13.8004 125.887 13.671L124.092 13.4285L124.044 12.6525L127.512 11.6582L127.973 11.9977C127.956 12.6767 127.94 13.3558 127.924 14.0348C127.908 14.7138 127.892 15.4656 127.876 16.2901C127.876 17.1146 127.876 18.1089 127.876 19.273L127.851 23.1773C127.851 24.1312 127.859 24.9961 127.876 25.7722C127.908 26.532 127.94 27.0251 127.973 27.2515L129.549 27.591L129.5 28.4883H124.335Z" fill="#252525"/>
<path d="M115.921 28.683C115.274 28.683 114.7 28.5537 114.199 28.295C113.698 28.0364 113.302 27.7049 113.011 27.3007C112.736 26.8966 112.599 26.4762 112.599 26.0397C112.599 25.49 112.776 25.0373 113.132 24.6817C113.488 24.326 114.07 24.0188 114.878 23.7601L118.564 22.5233V21.2866C118.564 20.8824 118.443 20.5186 118.201 20.1953C117.958 19.8558 117.635 19.589 117.231 19.395C116.826 19.201 116.374 19.104 115.872 19.104C115.468 19.104 115.193 19.1929 115.048 19.3707C114.902 19.5324 114.814 19.8638 114.781 20.365L114.733 21.3836C114.151 21.5129 113.658 21.4967 113.253 21.3351C112.849 21.1572 112.647 20.8743 112.647 20.4863C112.647 20.2114 112.76 19.9366 112.987 19.6617C113.229 19.3869 113.544 19.1282 113.932 18.8857C114.32 18.627 114.741 18.4088 115.193 18.2309C115.646 18.0531 116.091 17.9319 116.527 17.8672C117.724 17.8672 118.678 18.1824 119.389 18.813C120.116 19.4435 120.488 20.268 120.504 21.2866L120.456 25.3607C120.456 25.6679 120.464 25.967 120.48 26.258C120.512 26.549 120.553 26.7672 120.601 26.9127L122.153 27.2037V27.9555L120.965 28.392C120.739 28.4729 120.529 28.5375 120.335 28.586C120.141 28.6507 119.979 28.683 119.85 28.683C119.348 28.683 119.025 28.4001 118.88 27.8343L118.613 26.8885H118.977C118.443 27.4867 117.926 27.9394 117.425 28.2465C116.94 28.5375 116.438 28.683 115.921 28.683ZM116.576 27.2522C116.948 27.2522 117.295 27.1714 117.619 27.0097C117.942 26.8319 118.257 26.5651 118.564 26.2095V23.6631L115.848 24.3907C115.46 24.4877 115.177 24.6412 114.999 24.8514C114.838 25.0616 114.757 25.3284 114.757 25.6517C114.757 26.0559 114.935 26.4277 115.29 26.7672C115.662 27.0906 116.091 27.2522 116.576 27.2522Z" fill="#252525"/>
<path d="M103.675 28.5619L98.3886 15.5149L97.1519 15.1754L97.2246 14.2539H102.245L102.293 15.1754L100.814 15.5149L104.985 26.0883H104.5L108.404 15.5149L106.707 15.1754L106.779 14.2539H111.242L111.29 15.1754L110.078 15.5149L104.694 28.5619H103.675Z" fill="#252525"/>
<path d="M134.55 40.5927L135.089 39.8997C135.573 40.4387 136.365 40.9447 137.399 40.9447C138.708 40.9447 139.126 40.2407 139.126 39.6797C139.126 38.7997 138.235 38.5577 137.267 38.2937C136.09 37.9857 134.781 37.6557 134.781 36.2147C134.781 35.0047 135.859 34.1797 137.3 34.1797C138.422 34.1797 139.291 34.5537 139.907 35.2027L139.357 35.8737C138.807 35.2687 138.037 34.9937 137.234 34.9937C136.354 34.9937 135.727 35.4667 135.727 36.1597C135.727 36.8967 136.574 37.1167 137.509 37.3697C138.708 37.6887 140.072 38.0627 140.072 39.6027C140.072 40.6697 139.346 41.7587 137.366 41.7587C136.09 41.7587 135.155 41.2747 134.55 40.5927Z" fill="#252525"/>
<path d="M126.087 41.6261V34.2891H130.894V35.1031H127V37.4681H130.817V38.2821H127V40.8121H130.894V41.6261H126.087Z" fill="#252525"/>
<path d="M116.562 40.5927L117.101 39.8997C117.585 40.4387 118.377 40.9447 119.411 40.9447C120.72 40.9447 121.138 40.2407 121.138 39.6797C121.138 38.7997 120.247 38.5577 119.279 38.2937C118.102 37.9857 116.793 37.6557 116.793 36.2147C116.793 35.0047 117.871 34.1797 119.312 34.1797C120.434 34.1797 121.303 34.5537 121.919 35.2027L121.369 35.8737C120.819 35.2687 120.049 34.9937 119.246 34.9937C118.366 34.9937 117.739 35.4667 117.739 36.1597C117.739 36.8967 118.586 37.1167 119.521 37.3697C120.72 37.6887 122.084 38.0627 122.084 39.6027C122.084 40.6697 121.358 41.7587 119.378 41.7587C118.102 41.7587 117.167 41.2747 116.562 40.5927Z" fill="#252525"/>
<path d="M107.477 40.5927L108.016 39.8997C108.5 40.4387 109.292 40.9447 110.326 40.9447C111.635 40.9447 112.053 40.2407 112.053 39.6797C112.053 38.7997 111.162 38.5577 110.194 38.2937C109.017 37.9857 107.708 37.6557 107.708 36.2147C107.708 35.0047 108.786 34.1797 110.227 34.1797C111.349 34.1797 112.218 34.5537 112.834 35.2027L112.284 35.8737C111.734 35.2687 110.964 34.9937 110.161 34.9937C109.281 34.9937 108.654 35.4667 108.654 36.1597C108.654 36.8967 109.501 37.1167 110.436 37.3697C111.635 37.6887 112.999 38.0627 112.999 39.6027C112.999 40.6697 112.273 41.7587 110.293 41.7587C109.017 41.7587 108.082 41.2747 107.477 40.5927Z" fill="#252525"/>
<path d="M99.0142 41.6261V34.2891H103.821V35.1031H99.9272V37.4681H103.744V38.2821H99.9272V40.8121H103.821V41.6261H99.0142Z" fill="#252525"/>
<path d="M93.7782 41.6261L89.4992 35.7081V41.6261H88.5862V34.2891H89.5212L93.7452 40.0861V34.2891H94.6582V41.6261H93.7782Z" fill="#252525"/>
<path d="M83.3142 41.6261V34.2891H84.2272V41.6261H83.3142Z" fill="#252525"/>
<path d="M73.7891 40.5927L74.3281 39.8997C74.8121 40.4387 75.6041 40.9447 76.6381 40.9447C77.9471 40.9447 78.3651 40.2407 78.3651 39.6797C78.3651 38.7997 77.4741 38.5577 76.5061 38.2937C75.3291 37.9857 74.0201 37.6557 74.0201 36.2147C74.0201 35.0047 75.0981 34.1797 76.5391 34.1797C77.6611 34.1797 78.5301 34.5537 79.1461 35.2027L78.5961 35.8737C78.0461 35.2687 77.2761 34.9937 76.4731 34.9937C75.5931 34.9937 74.9661 35.4667 74.9661 36.1597C74.9661 36.8967 75.8131 37.1167 76.7481 37.3697C77.9471 37.6887 79.3111 38.0627 79.3111 39.6027C79.3111 40.6697 78.5851 41.7587 76.6051 41.7587C75.3291 41.7587 74.3941 41.2747 73.7891 40.5927Z" fill="#252525"/>
<path d="M63.8867 38.7771V34.2891H64.7997V38.7551C64.7997 40.0971 65.5257 40.9441 66.8787 40.9441C68.2317 40.9441 68.9577 40.0971 68.9577 38.7551V34.2891H69.8707V38.7661C69.8707 40.5921 68.8697 41.7581 66.8787 41.7581C64.8877 41.7581 63.8867 40.5811 63.8867 38.7771Z" fill="#252525"/>
<path d="M54.3289 41.6261V34.2891H57.5959C58.8719 34.2891 59.6529 35.0591 59.6529 36.1591C59.6529 37.0831 59.0369 37.6991 58.3659 37.8421C59.1469 37.9631 59.7959 38.7661 59.7959 39.6461C59.7959 40.8231 59.0149 41.6261 57.6729 41.6261H54.3289ZM55.2419 37.4681H57.4419C58.2669 37.4681 58.7069 36.9621 58.7069 36.2911C58.7069 35.6311 58.2669 35.1031 57.4419 35.1031H55.2419V37.4681ZM55.2419 40.8121H57.4859C58.3439 40.8121 58.8499 40.3281 58.8499 39.5471C58.8499 38.8761 58.3879 38.2821 57.4859 38.2821H55.2419V40.8121Z" fill="#252525"/>
<path d="M40.6055 41.6261V34.2891H41.5185V40.8121H44.9285V41.6261H40.6055Z" fill="#252525"/>
<path d="M32.3582 41.6261V34.2891H33.2712V40.8121H36.6812V41.6261H32.3582Z" fill="#252525"/>
<path d="M27.7467 41.6261L27.0977 39.9981H23.3797L22.7307 41.6261H21.7188L24.6667 34.2891H25.7997L28.7587 41.6261H27.7467ZM25.2387 35.1031L23.6437 39.1841H26.8228L25.2387 35.1031Z" fill="#252525"/>
<path d="M17.2134 41.6261V35.5211L14.7164 41.6261H14.3424L11.8564 35.5211V41.6261H10.9434V34.2891H12.2524L14.5294 39.8771L16.8174 34.2891H18.1264V41.6261H17.2134Z" fill="#252525"/>
<path d="M1.41797 40.5927L1.95697 39.8997C2.44097 40.4387 3.23297 40.9447 4.26697 40.9447C5.57597 40.9447 5.99397 40.2407 5.99397 39.6797C5.99397 38.7997 5.10297 38.5577 4.13497 38.2937C2.95797 37.9857 1.64897 37.6557 1.64897 36.2147C1.64897 35.0047 2.72697 34.1797 4.16797 34.1797C5.28997 34.1797 6.15897 34.5537 6.77497 35.2027L6.22497 35.8737C5.67497 35.2687 4.90497 34.9937 4.10197 34.9937C3.22197 34.9937 2.59497 35.4667 2.59497 36.1597C2.59497 36.8967 3.44197 37.1167 4.37697 37.3697C5.57597 37.6887 6.93997 38.0627 6.93997 39.6027C6.93997 40.6697 6.21397 41.7587 4.23397 41.7587C2.95797 41.7587 2.02297 41.2747 1.41797 40.5927Z" fill="#252525"/>
</svg>
