<svg width="40" height="52" viewBox="0 0 40 52" fill="none" xmlns="http://www.w3.org/2000/svg">
<path d="M40 19.1176C40 33.5 20 52 20 52C20 52 0 33.8074 0 19.1176C0 8.00698 8.9543 0 20 0C31.0457 0 40 8.00698 40 19.1176Z" fill="#E86868"/>
<path fill-rule="evenodd" clip-rule="evenodd" d="M29.4723 8.57484L32.9067 12.0093L33.9314 10.9846L30.2831 7.33624C29.8333 6.88651 29.1037 6.88813 28.656 7.33985L25.5558 10.4676L22.457 7.34119C22.0079 6.88806 21.2755 6.88806 20.8263 7.34119L17.7275 10.4676L14.6287 7.34119C14.1796 6.88806 13.4472 6.88806 12.998 7.34119L6.00208 14.3995C5.78899 14.6145 5.66943 14.9049 5.66943 15.2076V28.2951H7.11858V15.3316L13.8134 8.57713L16.9122 11.7036C17.3613 12.1567 18.0937 12.1567 18.5429 11.7036L21.6417 8.57713L24.7405 11.7036C25.1896 12.1567 25.9221 12.1567 26.3712 11.7036L29.4723 8.57484Z" fill="#252525"/>
<path d="M15.3871 28.1506C14.7831 28.1506 14.151 28.0733 13.4908 27.9188C12.8307 27.7643 12.2969 27.5676 11.8896 27.3289L11.7842 24.6109L12.6902 24.5266L13.2802 26.4018C13.6173 26.6265 13.9895 26.8021 14.3968 26.9285C14.8042 27.0409 15.2396 27.0971 15.7031 27.0971C16.4054 27.0971 16.9603 26.9285 17.3676 26.5914C17.789 26.2543 17.9997 25.7978 17.9997 25.2219C17.9997 24.7303 17.8522 24.323 17.5572 23.9999C17.2623 23.6628 16.876 23.3748 16.3984 23.1361C15.9349 22.8973 15.4362 22.6585 14.9025 22.4197C14.3828 22.1809 13.8841 21.914 13.4066 21.6191C12.943 21.3101 12.5638 20.9378 12.2688 20.5024C11.9739 20.0529 11.8264 19.4981 11.8264 18.8379C11.8264 18.1497 12.016 17.5527 12.3952 17.047C12.7745 16.5273 13.3012 16.12 13.9754 15.825C14.6637 15.53 15.4433 15.3826 16.3141 15.3826C16.6793 15.3826 17.0305 15.4036 17.3676 15.4458C17.7188 15.4739 18.0418 15.523 18.3368 15.5932C18.6318 15.6635 18.8986 15.7548 19.1374 15.8671L19.306 18.5008L18.4 18.5851L17.8101 16.8153C17.3746 16.5343 16.7987 16.3939 16.0824 16.3939C15.366 16.3939 14.7901 16.5695 14.3547 16.9206C13.9333 17.2577 13.7226 17.7142 13.7226 18.2901C13.7226 18.7958 13.8701 19.2172 14.1651 19.5543C14.4741 19.8914 14.8603 20.1864 15.3239 20.4392C15.8014 20.692 16.3001 20.9378 16.8198 21.1766C17.3536 21.4154 17.8522 21.6823 18.3157 21.9772C18.7933 22.2722 19.1796 22.6374 19.4745 23.0729C19.7835 23.4942 19.9381 24.021 19.9381 24.6531C19.9381 25.3273 19.7414 25.9313 19.3481 26.465C18.9689 26.9847 18.4351 27.3991 17.7468 27.7081C17.0586 28.0031 16.272 28.1506 15.3871 28.1506ZM27.0797 28.0241L22.4866 16.6888L21.4121 16.3939L21.4753 15.5932H25.8366L25.8788 16.3939L24.5935 16.6888L28.2175 25.8751H27.7961L31.1882 16.6888L29.7134 16.3939L29.7766 15.5932H33.6533L33.6955 16.3939L32.642 16.6888L27.9646 28.0241H27.0797Z" fill="white"/>
</svg>
