<svg width="52" height="39" viewBox="0 0 52 39" fill="none" xmlns="http://www.w3.org/2000/svg">
    <path fill-rule="evenodd" clip-rule="evenodd"
        d="M43.0432 2.84781L49.2537 9.05834L51.1067 7.20535L44.5094 0.608025C43.6961 -0.20522 42.3767 -0.202293 41.5671 0.614552L35.961 6.27058L30.3574 0.616982C29.5452 -0.202422 28.2207 -0.202421 27.4086 0.616982L21.8049 6.27058L16.2013 0.616982C15.3891 -0.20242 14.0646 -0.202424 13.2525 0.616981L0.601526 13.3807C0.21619 13.7695 0 14.2947 0 14.8421V38.5084H2.62052V15.0662L14.7269 2.85197L20.3305 8.50557C21.1427 9.32497 22.4672 9.32497 23.2793 8.50557L28.883 2.85197L34.4866 8.50557C35.2988 9.32497 36.6233 9.32497 37.4354 8.50557L43.0432 2.84781Z"
        fill="#E86868" />
    <path
        d="M16.1166 38.2703C15.2058 38.2703 14.2525 38.1538 13.2569 37.9208C12.2613 37.6878 11.4563 37.3912 10.842 37.0311L10.6831 32.9322L12.0494 32.8051L12.9391 35.633C13.4475 35.972 14.0089 36.2368 14.6232 36.4274C15.2375 36.5969 15.8942 36.6816 16.5933 36.6816C17.6524 36.6816 18.4892 36.4274 19.1035 35.919C19.739 35.4106 20.0567 34.7222 20.0567 33.8536C20.0567 33.1122 19.8343 32.4979 19.3894 32.0107C18.9446 31.5023 18.3621 31.068 17.6418 30.7079C16.9428 30.3478 16.1908 29.9877 15.3858 29.6276C14.602 29.2675 13.85 28.865 13.1298 28.4201C12.4307 27.9541 11.8588 27.3928 11.4139 26.7361C10.9691 26.0582 10.7467 25.2215 10.7467 24.2259C10.7467 23.1879 11.0327 22.2876 11.6046 21.525C12.1765 20.7412 12.9709 20.1269 13.9877 19.6821C15.0257 19.2372 16.2014 19.0148 17.5147 19.0148C18.0655 19.0148 18.5951 19.0466 19.1035 19.1101C19.633 19.1525 20.1203 19.2266 20.5651 19.3325C21.01 19.4384 21.4124 19.5761 21.7726 19.7456L22.0268 23.7175L20.6604 23.8446L19.7707 21.1755C19.1141 20.7518 18.2455 20.54 17.1652 20.54C16.0849 20.54 15.2163 20.8048 14.5597 21.3343C13.9242 21.8427 13.6064 22.5312 13.6064 23.3997C13.6064 24.1623 13.8288 24.7978 14.2737 25.3062C14.7397 25.8146 15.3223 26.2595 16.0213 26.6407C16.7415 27.022 17.4935 27.3928 18.2773 27.7529C19.0823 28.113 19.8343 28.5155 20.5333 28.9603C21.2536 29.4052 21.8361 29.9559 22.281 30.6126C22.747 31.2481 22.98 32.0425 22.98 32.9957C22.98 34.0125 22.6834 34.9234 22.0903 35.7284C21.5184 36.5121 20.7134 37.137 19.6754 37.6031C18.6374 38.0479 17.4512 38.2703 16.1166 38.2703ZM33.7504 38.0797L26.8235 20.9848L25.203 20.54L25.2983 19.3325H31.8757L31.9392 20.54L30.001 20.9848L35.4663 34.8387H34.8308L39.9465 20.9848L37.7223 20.54L37.8176 19.3325H43.6642L43.7277 20.54L42.139 20.9848L35.085 38.0797H33.7504Z"
        fill="#252525" />
</svg>