<svg width="300" height="300" viewBox="0 0 300 300" fill="none" xmlns="http://www.w3.org/2000/svg">
<rect width="300" height="300" rx="38" fill="#FDFAE9"/>
<path fill-rule="evenodd" clip-rule="evenodd" d="M221.867 82.5854L247.386 108.105L255 100.491L227.891 73.382C224.55 70.0404 219.128 70.0524 215.801 73.4089L192.766 96.6498L169.74 73.4188C166.403 70.0519 160.96 70.0519 157.623 73.4188L134.597 96.6498L111.572 73.4188C108.235 70.0519 102.792 70.0519 99.455 73.4188L47.4717 125.866C45.8883 127.463 45 129.621 45 131.87V229.116H55.7678V132.792L105.513 82.6025L128.539 105.833C131.876 109.2 137.319 109.2 140.656 105.833L163.682 82.6025L186.707 105.833C190.044 109.2 195.487 109.2 198.824 105.833L221.867 82.5854Z" fill="#E86868"/>
<path d="M111.224 227.067C107.481 227.067 103.565 226.588 99.4735 225.631C95.3825 224.673 92.0748 223.455 89.5506 221.975L88.8978 205.132L94.512 204.61L98.1678 216.23C100.257 217.623 102.564 218.711 105.088 219.494C107.612 220.191 110.31 220.539 113.183 220.539C117.535 220.539 120.973 219.494 123.497 217.405C126.109 215.316 127.414 212.487 127.414 208.919C127.414 205.872 126.5 203.348 124.672 201.346C122.845 199.257 120.451 197.473 117.491 195.993C114.619 194.513 111.529 193.033 108.221 191.554C105.001 190.074 101.911 188.42 98.9512 186.592C96.0788 184.677 93.7287 182.371 91.9008 179.672C90.0729 176.887 89.1589 173.449 89.1589 169.358C89.1589 165.093 90.334 161.393 92.6841 158.26C95.0343 155.039 98.2984 152.515 102.476 150.687C106.742 148.859 111.572 147.945 116.969 147.945C119.232 147.945 121.408 148.076 123.497 148.337C125.673 148.511 127.675 148.815 129.503 149.251C131.331 149.686 132.985 150.252 134.465 150.948L135.509 167.269L129.895 167.791L126.239 156.823C123.541 155.083 119.972 154.212 115.533 154.212C111.094 154.212 107.525 155.3 104.827 157.476C102.215 159.565 100.91 162.394 100.91 165.963C100.91 169.096 101.824 171.708 103.652 173.797C105.567 175.886 107.96 177.714 110.833 179.281C113.792 180.847 116.882 182.371 120.103 183.85C123.41 185.33 126.5 186.984 129.373 188.812C132.332 190.64 134.726 192.903 136.554 195.601C138.469 198.212 139.426 201.476 139.426 205.393C139.426 209.571 138.208 213.314 135.77 216.622C133.42 219.843 130.113 222.41 125.848 224.325C121.582 226.153 116.708 227.067 111.224 227.067ZM183.682 226.284L155.219 156.04L148.561 154.212L148.952 149.251H175.979L176.24 154.212L168.276 156.04L190.733 212.966H188.122L209.142 156.04L200.003 154.212L200.395 149.251H224.418L224.68 154.212L218.151 156.04L189.166 226.284H183.682Z" fill="#252525"/>
</svg>
