<svg width="192" height="192" viewBox="0 0 192 192" fill="none" xmlns="http://www.w3.org/2000/svg">
<rect width="192" height="192" rx="35.6571" fill="white"/>
<path fill-rule="evenodd" clip-rule="evenodd" d="M143.972 51.0006L161.007 68.0352L166.089 62.9527L147.994 44.8572C145.763 42.6266 142.144 42.6346 139.923 44.8751L124.547 60.3888L109.177 44.8817C106.949 42.6342 103.316 42.6342 101.088 44.8817L85.7184 60.3888L70.3484 44.8817C68.1208 42.6342 64.4879 42.6342 62.2603 44.8817L27.5605 79.8908C26.5036 80.9571 25.9106 82.3977 25.9106 83.8991V148.812H33.0984V84.514L66.3043 51.012L81.6744 66.519C83.902 68.7665 87.5349 68.7665 89.7625 66.519L105.133 51.012L120.503 66.519C122.73 68.7665 126.363 68.7665 128.591 66.519L143.972 51.0006Z" fill="#E86868"/>
<path d="M70.1165 147.044C67.6181 147.044 65.0034 146.725 62.2726 146.085C59.5418 145.446 57.3339 144.633 55.6489 143.645L55.2131 132.402L58.9608 132.054L61.4011 139.81C62.7955 140.74 64.3353 141.466 66.0202 141.989C67.7052 142.454 69.5064 142.686 71.4238 142.686C74.3289 142.686 76.624 141.989 78.3089 140.595C80.052 139.2 80.9236 137.312 80.9236 134.93C80.9236 132.896 80.3135 131.211 79.0933 129.875C77.8732 128.48 76.2753 127.289 74.2999 126.302C72.3825 125.314 70.3198 124.326 68.1119 123.338C65.9621 122.351 63.8995 121.247 61.924 120.026C60.0066 118.748 58.4378 117.208 57.2177 115.407C55.9975 113.548 55.3875 111.253 55.3875 108.522C55.3875 105.675 56.1718 103.206 57.7406 101.114C59.3094 98.9642 61.4882 97.2793 64.2772 96.0591C67.1242 94.839 70.3489 94.2289 73.9512 94.2289C75.4619 94.2289 76.9145 94.316 78.3089 94.4903C79.7615 94.6065 81.0979 94.8099 82.318 95.1004C83.5382 95.3909 84.6421 95.7686 85.6299 96.2334L86.3271 107.128L82.5795 107.476L80.1392 100.155C78.338 98.9933 75.9558 98.4123 72.9925 98.4123C70.0293 98.4123 67.6471 99.1386 65.8459 100.591C64.1028 101.986 63.2313 103.874 63.2313 106.256C63.2313 108.348 63.8414 110.091 65.0615 111.485C66.3398 112.88 67.9376 114.1 69.855 115.146C71.8305 116.192 73.8931 117.208 76.0429 118.196C78.2508 119.184 80.3135 120.288 82.2309 121.508C84.2063 122.728 85.8042 124.239 87.0243 126.04C88.3026 127.783 88.9417 129.962 88.9417 132.577C88.9417 135.366 88.1283 137.864 86.5014 140.072C84.9326 142.222 82.7247 143.936 79.8777 145.214C77.0307 146.434 73.7769 147.044 70.1165 147.044ZM118.483 146.521L99.4838 99.6324L95.039 98.4123L95.3005 95.1004H113.341L113.516 98.4123L108.199 99.6324L123.19 137.632H121.447L135.478 99.6324L129.378 98.4123L129.639 95.1004H145.675L145.85 98.4123L141.492 99.6324L122.144 146.521H118.483Z" fill="#252525"/>
</svg>
