<svg width="143" height="42" viewBox="0 0 143 42" fill="none" xmlns="http://www.w3.org/2000/svg">
<path fill-rule="evenodd" clip-rule="evenodd" d="M32.8509 2.17347L37.5908 6.91339L39.005 5.49918L33.9699 0.464049C33.3492 -0.156625 32.3422 -0.154391 31.7243 0.469031L27.4457 4.78575L23.169 0.470885C22.5491 -0.15449 21.5383 -0.154489 20.9184 0.470885L16.6417 4.78575L12.3649 0.470885C11.7451 -0.154489 10.7342 -0.154491 10.1144 0.470884L0.459089 10.2122C0.164998 10.509 0 10.9098 0 11.3276V29.3899H2V11.4987L11.2397 2.17664L15.5164 6.49151C16.1362 7.11689 17.1471 7.11689 17.7669 6.49151L22.0437 2.17664L26.3204 6.49151C26.9403 7.11689 27.9511 7.11689 28.571 6.49151L32.8509 2.17347Z" fill="#E86868"/>
<path d="M12.3002 28.7065C11.605 28.7065 10.8775 28.6176 10.1176 28.4398C9.35775 28.2619 8.7434 28.0356 8.27455 27.7608L8.15329 24.6324L9.19608 24.5354L9.8751 26.6937C10.2631 26.9524 10.6915 27.1545 11.1604 27.3C11.6292 27.4293 12.1304 27.494 12.6639 27.494C13.4723 27.494 14.1109 27.3 14.5798 26.912C15.0648 26.524 15.3073 25.9985 15.3073 25.3357C15.3073 24.7698 15.1375 24.301 14.798 23.9291C14.4585 23.5411 14.0139 23.2097 13.4642 22.9348C12.9307 22.66 12.3568 22.3852 11.7424 22.1103C11.1442 21.8355 10.5703 21.5283 10.0206 21.1888C9.48709 20.8331 9.05057 20.4047 8.71106 19.9035C8.37155 19.3861 8.20179 18.7475 8.20179 17.9877C8.20179 17.1955 8.42005 16.5084 8.85657 15.9264C9.29308 15.3282 9.89935 14.8593 10.6754 14.5198C11.4676 14.1803 12.3648 14.0106 13.3672 14.0106C13.7876 14.0106 14.1917 14.0348 14.5798 14.0833C14.9839 14.1156 15.3558 14.1722 15.6953 14.2531C16.0348 14.3339 16.342 14.439 16.6168 14.5683L16.8108 17.5997L15.768 17.6967L15.089 15.6596C14.5878 15.3363 13.925 15.1746 13.1005 15.1746C12.2759 15.1746 11.6131 15.3767 11.1119 15.7809C10.6269 16.1689 10.3844 16.6943 10.3844 17.3572C10.3844 17.9392 10.5541 18.4242 10.8936 18.8122C11.2493 19.2002 11.6939 19.5397 12.2274 19.8307C12.7771 20.1218 13.351 20.4047 13.9492 20.6795C14.5636 20.9544 15.1375 21.2615 15.671 21.6011C16.2207 21.9406 16.6653 22.3609 17.0048 22.8621C17.3605 23.3471 17.5384 23.9534 17.5384 24.6809C17.5384 25.4569 17.312 26.1521 16.8593 26.7665C16.4228 27.3647 15.8085 27.8416 15.0163 28.1973C14.2241 28.5368 13.3187 28.7065 12.3002 28.7065ZM20.205 28.4883L20.1565 27.6153L21.66 27.2515C21.6924 27.0737 21.7166 26.8069 21.7328 26.4512C21.7489 26.0794 21.757 25.5863 21.757 24.9719C21.7732 24.3576 21.7813 23.6058 21.7813 22.7166V19.6852C21.7813 19.1356 21.7732 18.5455 21.757 17.9149C21.757 17.2844 21.7489 16.6781 21.7328 16.0961C21.7328 15.4979 21.7247 14.9806 21.7085 14.5441C21.7085 14.1076 21.7004 13.8165 21.6843 13.671L19.8897 13.4285L19.8412 12.6525L23.2606 11.6582L23.7213 11.9977C23.7052 12.4989 23.689 13.0001 23.6728 13.5013C23.6567 14.0025 23.6405 14.5441 23.6243 15.1261C23.6243 15.6919 23.6163 16.3386 23.6001 17.0662C23.6001 17.7937 23.6001 18.6344 23.6001 19.5882L23.6728 19.6125C24.2387 18.9981 24.7884 18.5535 25.3219 18.2787C25.8716 18.0039 26.4698 17.8664 27.1164 17.8664C27.7146 17.8664 28.2724 18.02 28.7898 18.3272C29.3233 18.6344 29.7517 19.1032 30.075 19.7337C30.4146 20.3481 30.5843 21.1403 30.5843 22.1103V24.7294C30.5843 25.3114 30.6005 25.8369 30.6328 26.3057C30.6652 26.7584 30.6975 27.0737 30.7298 27.2515L32.2334 27.6153L32.1849 28.4883H27.3105L27.2377 27.6153L28.6443 27.2515C28.6604 27.1222 28.6766 26.9605 28.6928 26.7665C28.7089 26.5725 28.717 26.33 28.717 26.039C28.7332 25.7318 28.7413 25.3518 28.7413 24.8992V22.2801C28.7413 21.5849 28.62 21.0271 28.3775 20.6068C28.1512 20.1703 27.8521 19.855 27.4802 19.661C27.1084 19.4508 26.7123 19.3457 26.2919 19.3457C25.7746 19.3457 25.2815 19.4832 24.8126 19.758C24.3438 20.0167 23.9477 20.3804 23.6243 20.8493V24.4869C23.6243 25.2306 23.6324 25.8449 23.6486 26.33C23.6809 26.815 23.7133 27.1222 23.7456 27.2515L25.2249 27.6153L25.1764 28.4883H20.205ZM38.5376 28.6823C37.8909 28.6823 37.317 28.553 36.8158 28.2943C36.3146 28.0356 35.9185 27.7042 35.6275 27.3C35.3527 26.8958 35.2152 26.4755 35.2152 26.039C35.2152 25.4893 35.3931 25.0366 35.7488 24.6809C36.1044 24.3252 36.6865 24.0181 37.4948 23.7594L41.1809 22.5226V21.2858C41.1809 20.8816 41.0597 20.5179 40.8172 20.1945C40.5747 19.855 40.2513 19.5882 39.8472 19.3942C39.443 19.2002 38.9903 19.1032 38.4891 19.1032C38.0849 19.1032 37.8101 19.1921 37.6646 19.37C37.5191 19.5317 37.4302 19.8631 37.3978 20.3643L37.3493 21.3828C36.7673 21.5121 36.2742 21.496 35.87 21.3343C35.4658 21.1565 35.2637 20.8735 35.2637 20.4855C35.2637 20.2107 35.3769 19.9358 35.6033 19.661C35.8458 19.3861 36.161 19.1275 36.549 18.885C36.9371 18.6263 37.3574 18.408 37.8101 18.2302C38.2628 18.0524 38.7074 17.9311 39.1439 17.8664C40.3403 17.8664 41.2941 18.1817 42.0055 18.8122C42.733 19.4427 43.1048 20.2673 43.121 21.2858L43.0725 25.3599C43.0725 25.6671 43.0806 25.9662 43.0968 26.2572C43.1291 26.5482 43.1695 26.7665 43.218 26.912L44.7701 27.203V27.9548L43.5818 28.3913C43.3554 28.4721 43.1453 28.5368 42.9513 28.5853C42.7572 28.65 42.5956 28.6823 42.4662 28.6823C41.9651 28.6823 41.6417 28.3994 41.4962 27.8335L41.2294 26.8877H41.5932C41.0597 27.4859 40.5423 27.9386 40.0412 28.2458C39.5561 28.5368 39.055 28.6823 38.5376 28.6823ZM39.1924 27.2515C39.5642 27.2515 39.9118 27.1707 40.2352 27.009C40.5585 26.8311 40.8738 26.5644 41.1809 26.2087V23.6624L38.4649 24.3899C38.0768 24.4869 37.7939 24.6405 37.6161 24.8507C37.4544 25.0608 37.3736 25.3276 37.3736 25.6509C37.3736 26.0551 37.5514 26.427 37.9071 26.7665C38.2789 27.0898 38.7074 27.2515 39.1924 27.2515ZM47.0729 28.4883L47.0002 27.6153L48.5037 27.2515C48.5199 27.1707 48.5361 27.0251 48.5522 26.815C48.5684 26.6048 48.5765 26.3219 48.5765 25.9662C48.5926 25.6105 48.6007 25.174 48.6007 24.6567L48.625 22.7651C48.625 22.2316 48.6007 21.7061 48.5522 21.1888C48.5199 20.6714 48.4795 20.2592 48.431 19.952L46.8789 19.6125V18.8122L50.1285 17.9149L50.468 18.2544L50.371 20.2915L50.4438 20.3158C50.9288 19.3781 51.4219 18.7475 51.9231 18.4242C52.4243 18.0847 52.8931 17.9149 53.3296 17.9149C53.7015 17.9149 54.0086 18.0119 54.2512 18.2059C54.5098 18.3838 54.6392 18.6586 54.6392 19.0305C54.6392 19.4185 54.5017 19.7176 54.2269 19.9277C53.9682 20.1218 53.6368 20.2188 53.2326 20.2188C52.9416 20.2188 52.6587 20.1541 52.3838 20.0248C52.1252 19.8954 51.8746 19.7176 51.6321 19.4912L52.0686 19.6367C51.7614 19.8307 51.4704 20.1056 51.1956 20.4613C50.9207 20.8008 50.6701 21.2292 50.4438 21.7466L50.468 24.0019C50.4842 24.4061 50.5004 24.8264 50.5165 25.2629C50.5327 25.6994 50.5489 26.0955 50.565 26.4512C50.5812 26.7907 50.5974 27.0575 50.6135 27.2515L52.7234 27.5668L52.6749 28.4883H47.0729ZM56.8935 28.4883L56.8208 27.6153L58.3243 27.2515C58.3405 27.1707 58.3567 27.0251 58.3728 26.815C58.389 26.6048 58.3971 26.3219 58.3971 25.9662C58.4132 25.6105 58.4213 25.174 58.4213 24.6567L58.4456 22.7651C58.4456 22.2316 58.4213 21.7061 58.3728 21.1888C58.3405 20.6714 58.3001 20.2592 58.2516 19.952L56.6995 19.6125V18.8122L59.9491 17.9149L60.2886 18.2544L60.1916 20.2915L60.2644 20.3158C60.7494 19.3781 61.2425 18.7475 61.7437 18.4242C62.2449 18.0847 62.7137 17.9149 63.1502 17.9149C63.5221 17.9149 63.8293 18.0119 64.0718 18.2059C64.3304 18.3838 64.4598 18.6586 64.4598 19.0305C64.4598 19.4185 64.3224 19.7176 64.0475 19.9277C63.7888 20.1218 63.4574 20.2188 63.0532 20.2188C62.7622 20.2188 62.4793 20.1541 62.2044 20.0248C61.9458 19.8954 61.6952 19.7176 61.4527 19.4912L61.8892 19.6367C61.582 19.8307 61.291 20.1056 61.0162 20.4613C60.7413 20.8008 60.4907 21.2292 60.2644 21.7466L60.2886 24.0019C60.3048 24.4061 60.321 24.8264 60.3371 25.2629C60.3533 25.6994 60.3695 26.0955 60.3856 26.4512C60.4018 26.7907 60.418 27.0575 60.4341 27.2515L62.544 27.5668L62.4955 28.4883H56.8935ZM71.6128 28.6823C70.5619 28.6823 69.6404 28.4559 68.8482 28.0033C68.0722 27.5506 67.4659 26.9201 67.0294 26.1117C66.5929 25.2872 66.3746 24.3495 66.3746 23.2986C66.3746 22.1992 66.6171 21.2454 67.1021 20.437C67.5872 19.6287 68.2338 18.9981 69.0422 18.5455C69.8506 18.0928 70.7398 17.8664 71.7098 17.8664C72.7122 17.8664 73.5852 18.0928 74.3289 18.5455C75.0887 18.982 75.6708 19.6044 76.0749 20.4128C76.4953 21.205 76.7055 22.1346 76.7055 23.2016C76.7055 24.2201 76.4791 25.1417 76.0264 25.9662C75.5738 26.7907 74.9594 27.4536 74.1834 27.9548C73.4235 28.4398 72.5667 28.6823 71.6128 28.6823ZM71.8553 27.5425C72.405 27.5425 72.8819 27.3808 73.2861 27.0575C73.6903 26.718 74.0055 26.2572 74.2319 25.6752C74.4582 25.077 74.5714 24.398 74.5714 23.6381C74.5714 22.2477 74.2804 21.1241 73.6984 20.2673C73.1325 19.3942 72.3807 18.9577 71.443 18.9577C70.57 18.9577 69.8667 19.3215 69.3332 20.049C68.8159 20.7765 68.5572 21.7385 68.5572 22.9348C68.5572 23.8402 68.6946 24.6405 68.9695 25.3357C69.2605 26.0309 69.6566 26.5725 70.1577 26.9605C70.6589 27.3485 71.2248 27.5425 71.8553 27.5425ZM90.867 28.5853L87.1566 19.2972L85.9198 18.9335L85.9683 18.0604H90.4304L90.4789 18.9335L89.2179 19.2972L92.031 26.6695L91.4247 26.6937L94.3106 19.2972L93.0495 18.9335L93.098 18.0604H96.8569L96.9054 18.9335L95.7656 19.2972L91.6187 28.5853H90.867ZM83.81 28.5853L79.8813 19.2972L78.7416 18.9335L78.7901 18.0604H83.2765L83.325 18.9335L82.0882 19.2972L85.0953 26.6695L84.3677 26.6937L87.5688 19.079L88.2236 20.5825L84.5617 28.5853H83.81Z" fill="black"/>
<path d="M103.675 28.561L98.3885 15.5141L97.1517 15.1746L97.2244 14.2531H102.244L102.293 15.1746L100.814 15.5141L104.985 26.0875H104.5L108.404 15.5141L106.707 15.1746L106.779 14.2531H111.241L111.29 15.1746L110.077 15.5141L104.694 28.561H103.675ZM115.921 28.6823C115.274 28.6823 114.7 28.553 114.199 28.2943C113.698 28.0356 113.302 27.7042 113.011 27.3C112.736 26.8958 112.598 26.4755 112.598 26.039C112.598 25.4893 112.776 25.0366 113.132 24.6809C113.488 24.3252 114.07 24.0181 114.878 23.7594L118.564 22.5226V21.2858C118.564 20.8816 118.443 20.5179 118.2 20.1945C117.958 19.855 117.635 19.5882 117.23 19.3942C116.826 19.2002 116.374 19.1032 115.872 19.1032C115.468 19.1032 115.193 19.1921 115.048 19.37C114.902 19.5317 114.813 19.8631 114.781 20.3643L114.733 21.3828C114.151 21.5121 113.657 21.496 113.253 21.3343C112.849 21.1565 112.647 20.8735 112.647 20.4855C112.647 20.2107 112.76 19.9358 112.986 19.661C113.229 19.3861 113.544 19.1275 113.932 18.885C114.32 18.6263 114.741 18.408 115.193 18.2302C115.646 18.0524 116.091 17.9311 116.527 17.8664C117.723 17.8664 118.677 18.1817 119.389 18.8122C120.116 19.4427 120.488 20.2673 120.504 21.2858L120.456 25.3599C120.456 25.6671 120.464 25.9662 120.48 26.2572C120.512 26.5482 120.553 26.7665 120.601 26.912L122.153 27.203V27.9548L120.965 28.3913C120.739 28.4721 120.528 28.5368 120.334 28.5853C120.14 28.65 119.979 28.6823 119.849 28.6823C119.348 28.6823 119.025 28.3994 118.879 27.8335L118.613 26.8877H118.976C118.443 27.4859 117.926 27.9386 117.424 28.2458C116.939 28.5368 116.438 28.6823 115.921 28.6823ZM116.576 27.2515C116.947 27.2515 117.295 27.1707 117.618 27.009C117.942 26.8311 118.257 26.5644 118.564 26.2087V23.6624L115.848 24.3899C115.46 24.4869 115.177 24.6405 114.999 24.8507C114.838 25.0608 114.757 25.3276 114.757 25.6509C114.757 26.0551 114.935 26.427 115.29 26.7665C115.662 27.0898 116.091 27.2515 116.576 27.2515ZM124.335 28.4883L124.286 27.591L125.863 27.2515C125.895 27.0898 125.919 26.8231 125.935 26.4512C125.952 26.0794 125.96 25.5863 125.96 24.9719C125.976 24.3576 125.984 23.6058 125.984 22.7166V19.6852C125.984 19.0709 125.976 18.4404 125.96 17.7937C125.96 17.147 125.952 16.5407 125.935 15.9749C125.935 15.3928 125.927 14.8997 125.911 14.4956C125.911 14.0752 125.903 13.8004 125.887 13.671L124.092 13.4285L124.044 12.6525L127.512 11.6582L127.973 11.9977C127.956 12.6768 127.94 13.3558 127.924 14.0348C127.908 14.7138 127.892 15.4656 127.876 16.2901C127.876 17.1147 127.876 18.1089 127.876 19.273L127.851 23.1774C127.851 24.1312 127.859 24.9962 127.876 25.7722C127.908 26.532 127.94 27.0251 127.973 27.2515L129.549 27.591L129.5 28.4883H124.335ZM137.187 28.6823C136.249 28.6823 135.4 28.4721 134.641 28.0518C133.897 27.6314 133.299 27.0332 132.846 26.2572C132.409 25.465 132.191 24.5354 132.191 23.4684C132.191 22.3205 132.426 21.3262 132.894 20.4855C133.363 19.6448 133.978 18.9981 134.738 18.5455C135.497 18.0766 136.314 17.8503 137.187 17.8664C138.448 17.8826 139.434 18.3029 140.145 19.1275C140.857 19.952 141.212 21.116 141.212 22.6196V23.0561H133.767V21.9891H139.612L139.345 22.3043V21.7951C139.345 20.8574 139.135 20.1379 138.715 19.6367C138.294 19.1356 137.72 18.885 136.993 18.885C136.54 18.885 136.104 19.0224 135.683 19.2972C135.263 19.5559 134.923 19.9601 134.665 20.5098C134.406 21.0433 134.277 21.7223 134.277 22.5468V22.8378C134.277 24.1636 134.6 25.1983 135.247 25.9419C135.91 26.6856 136.758 27.0575 137.793 27.0575C138.359 27.0575 138.868 26.9443 139.321 26.718C139.774 26.4916 140.21 26.1279 140.63 25.6267L141.237 26.1845C140.784 27.0251 140.21 27.6557 139.515 28.076C138.82 28.4802 138.044 28.6823 137.187 28.6823Z" fill="black"/>
<path d="M1.4022 40.632L1.92083 39.9652C2.38654 40.4839 3.1486 40.9707 4.14353 40.9707C5.40305 40.9707 5.80525 40.2933 5.80525 39.7535C5.80525 38.9068 4.94793 38.6739 4.01651 38.4199C2.884 38.1236 1.62447 37.806 1.62447 36.4195C1.62447 35.2552 2.66173 34.4614 4.04827 34.4614C5.12786 34.4614 5.96402 34.8213 6.55674 35.4457L6.02752 36.0914C5.49831 35.5093 4.75741 35.2446 3.98476 35.2446C3.13802 35.2446 2.53472 35.6998 2.53472 36.3666C2.53472 37.0757 3.34971 37.2874 4.24937 37.5308C5.40305 37.8378 6.7155 38.1977 6.7155 39.6794C6.7155 40.7061 6.01694 41.754 4.11177 41.754C2.884 41.754 1.98434 41.2883 1.4022 40.632ZM14.3038 41.627V38.3882H10.1759V41.627H9.2974V34.5673H10.1759V37.6049H14.3038V34.5673H15.1822V41.627H14.3038ZM18.1026 41.627V34.5673H22.7279V35.3505H18.9811V37.6261H22.6538V38.4093H18.9811V40.8437H22.7279V41.627H18.1026ZM25.3987 41.627V34.5673H30.024V35.3505H26.2772V37.6261H29.9499V38.4093H26.2772V41.627H25.3987ZM32.4881 41.627V34.5673H37.1134V35.3505H33.3666V37.6261H37.0393V38.4093H33.3666V41.627H32.4881ZM39.5775 41.627V34.5673H40.456V41.627H39.5775ZM43.38 41.627V34.5673H48.0053V35.3505H44.2584V37.6261H47.9312V38.4093H44.2584V40.8437H48.0053V41.627H43.38ZM50.6761 41.627V34.5673H51.5546V40.8437H54.8357V41.627H50.6761ZM57.3417 41.627V34.5673H59.7549C61.9458 34.5673 63.3747 36.102 63.3747 38.1024C63.3747 40.1134 61.9458 41.627 59.7549 41.627H57.3417ZM58.2202 40.8437H59.7549C61.4695 40.8437 62.4644 39.6159 62.4644 38.1024C62.4644 36.5783 61.5013 35.3505 59.7549 35.3505H58.2202V40.8437ZM73.3346 41.754C71.3341 41.754 69.7359 40.2722 69.7359 38.1024C69.7359 35.9326 71.3341 34.4508 73.3346 34.4508C74.6153 34.4508 75.4832 35.0541 76.0441 35.8479L75.3032 36.2607C74.901 35.668 74.1707 35.2341 73.3346 35.2341C71.821 35.2341 70.6462 36.4195 70.6462 38.1024C70.6462 39.7747 71.821 40.9707 73.3346 40.9707C74.1707 40.9707 74.901 40.5474 75.3032 39.9441L76.0547 40.3568C75.462 41.1612 74.6153 41.754 73.3346 41.754ZM78.1587 38.1024C78.1587 36.0173 79.5664 34.4508 81.6621 34.4508C83.7472 34.4508 85.1655 36.0173 85.1655 38.1024C85.1655 40.1875 83.7472 41.754 81.6621 41.754C79.5664 41.754 78.1587 40.1875 78.1587 38.1024ZM84.2552 38.1024C84.2552 36.4513 83.2391 35.2341 81.6621 35.2341C80.0744 35.2341 79.0689 36.4513 79.0689 38.1024C79.0689 39.743 80.0744 40.9707 81.6621 40.9707C83.2391 40.9707 84.2552 39.743 84.2552 38.1024ZM93.8408 41.627V35.7527L91.4382 41.627H91.0783L88.6863 35.7527V41.627H87.8078V34.5673H89.0673L91.2583 39.9441L93.4598 34.5673H94.7193V41.627H93.8408ZM103.669 41.627V35.7527L101.267 41.627H100.907L98.5148 35.7527V41.627H97.6363V34.5673H98.8958L101.087 39.9441L103.288 34.5673H104.548V41.627H103.669ZM107.465 38.8856V34.5673H108.343V38.8645C108.343 40.1557 109.042 40.9707 110.344 40.9707C111.646 40.9707 112.344 40.1557 112.344 38.8645V34.5673H113.223V38.875C113.223 40.632 112.259 41.754 110.344 41.754C108.428 41.754 107.465 40.6214 107.465 38.8856ZM121.142 41.627L117.024 35.9326V41.627H116.146V34.5673H117.046L121.11 40.1452V34.5673H121.988V41.627H121.142ZM124.91 41.627V34.5673H125.788V41.627H124.91ZM130.459 41.627V35.3505H128.225V34.5673H133.581V35.3505H131.337V41.627H130.459ZM138.072 41.627V38.6422L135.288 34.5673H136.315L138.506 37.8484L140.697 34.5673H141.724L138.951 38.6422V41.627H138.072Z" fill="black"/>
</svg>
